<svg id="svg" xmlns="http://www.w3.org/2000/svg" xmlns:xlink="http://www.w3.org/1999/xlink" width="400" height="400" viewBox="0, 0, 400,400"><g id="svgg"><path id="path0" d="M346.166 50.505 C 341.008 53.747,270.531 147.010,268.431 153.374 C 266.051 160.586,269.658 169.752,276.143 172.972 C 279.272 174.526,282.158 174.688,310.889 174.921 L 342.222 175.176 342.222 188.061 C 342.222 202.137,343.002 205.498,346.999 208.642 L 349.324 210.471 346.164 211.063 C 340.771 212.075,336.754 216.834,301.482 264.000 C 261.762 317.115,263.753 314.128,263.811 320.521 C 263.947 335.680,269.530 337.778,309.740 337.778 L 337.615 337.778 337.918 350.889 C 338.332 368.744,341.139 373.526,351.264 373.622 C 362.459 373.729,365.285 369.092,365.314 350.571 L 365.333 338.032 372.340 337.552 C 384.724 336.703,389.128 332.759,388.222 323.330 C 387.505 315.874,382.647 312.889,371.230 312.889 L 365.333 312.889 365.314 267.778 C 365.292 217.465,365.262 217.204,359.107 213.461 L 356.334 211.774 359.634 211.155 C 367.403 209.698,369.766 204.042,369.773 186.889 L 369.778 175.111 376.256 175.111 C 387.851 175.111,393.590 170.311,392.428 161.584 C 391.393 153.807,387.797 151.333,376.253 150.457 L 369.839 149.970 369.586 104.985 C 369.305 55.001,369.389 55.709,363.244 51.333 C 359.344 48.556,349.989 48.103,346.166 50.505 M76.889 50.764 C 75.911 51.240,72.711 54.898,69.778 58.892 C 58.205 74.650,51.372 80.404,33.100 89.782 C 19.064 96.985,17.778 98.253,17.778 104.890 C 17.778 122.141,33.052 121.161,58.522 102.276 L 65.724 96.936 65.973 149.737 C 66.218 201.723,66.251 202.576,68.082 205.047 C 75.266 214.740,88.005 213.763,93.333 203.110 L 95.556 198.667 95.556 129.333 L 95.556 60.000 93.472 56.364 C 90.093 50.469,82.653 47.956,76.889 50.764 M207.556 50.786 C 206.578 51.274,203.378 54.932,200.444 58.914 C 188.834 74.676,181.558 80.823,163.908 89.783 C 148.476 97.617,144.984 103.203,150.186 111.735 C 155.702 120.781,165.771 118.741,186.202 104.438 C 191.435 100.775,195.880 97.778,196.080 97.778 C 196.281 97.778,196.444 120.518,196.444 148.312 C 196.444 183.670,196.748 199.753,197.454 201.867 C 198.598 205.290,202.181 209.504,204.601 210.272 C 206.816 210.975,206.638 212.145,204.222 212.762 C 203.034 213.066,199.336 217.116,195.111 222.741 C 183.860 237.721,176.582 243.586,156.644 253.738 C 143.848 260.254,140.908 265.584,145.739 273.507 C 151.561 283.056,161.317 281.148,182.497 266.320 L 191.933 259.715 192.189 311.413 C 192.417 357.544,192.603 363.398,193.916 365.778 C 200.866 378.378,218.225 375.886,221.234 361.856 C 222.544 355.743,222.612 225.884,221.307 221.184 C 220.347 217.729,215.218 212.506,212.636 212.355 C 211.797 212.306,212.703 211.893,214.648 211.438 C 219.148 210.384,222.653 207.025,224.651 201.849 C 227.173 195.315,227.058 62.685,224.525 57.068 C 221.713 50.831,213.530 47.802,207.556 50.786 M341.922 149.930 C 341.744 150.108,331.726 150.147,319.660 150.016 L 297.722 149.778 319.750 120.024 L 341.778 90.270 342.012 119.938 C 342.141 136.255,342.101 149.751,341.922 149.930 M35.972 215.166 C 28.312 217.394,26.822 221.462,20.445 257.555 C 13.561 296.521,13.638 298.249,22.463 302.254 C 29.248 305.335,32.872 304.231,45.312 295.298 C 69.946 277.608,96.484 294.945,91.710 325.609 C 86.772 357.327,53.710 362.108,38.228 333.343 C 28.650 315.549,8.666 318.997,11.658 337.928 C 18.690 382.411,95.240 386.853,116.316 344.000 C 138.637 298.617,98.493 251.905,52.870 270.173 C 49.076 271.692,45.848 272.811,45.695 272.658 C 45.543 272.506,46.674 265.096,48.209 256.191 L 51.000 240.000 79.500 239.999 C 104.859 239.997,108.341 239.826,111.093 238.443 C 121.300 233.315,120.186 218.111,109.384 215.110 C 105.454 214.019,39.746 214.069,35.972 215.166 M337.478 312.596 C 337.299 312.775,327.281 312.813,315.215 312.682 L 293.277 312.444 315.305 282.673 L 337.333 252.901 337.568 282.587 C 337.697 298.914,337.656 312.418,337.478 312.596 " stroke="none" fill="#000000" fill-rule="evenodd"></path></g></svg>