<svg id="svg" version="1.1" xmlns="http://www.w3.org/2000/svg" xmlns:xlink="http://www.w3.org/1999/xlink" width="400" height="440.90909090909093" viewBox="0, 0, 400,440.90909090909093"><g id="svgg"><path id="path0" d="M193.400 78.272 C 188.551 78.473,183.196 79.173,177.200 80.391 C 174.010 81.039,168.963 82.002,165.985 82.533 C 162.564 83.141,159.539 83.949,157.770 84.725 C 156.230 85.401,153.357 86.421,151.385 86.993 C 146.174 88.502,130.105 96.044,126.600 98.625 C 125.940 99.111,124.320 100.111,123.000 100.847 C 112.231 106.851,94.809 122.687,86.114 134.372 C 80.807 141.504,79.091 143.937,78.333 145.400 C 77.877 146.280,76.884 147.872,76.126 148.938 C 75.368 150.003,74.063 152.253,73.227 153.938 C 72.391 155.622,71.151 158.080,70.472 159.400 C 67.953 164.297,64.868 171.479,64.202 174.000 C 63.824 175.430,62.883 178.220,62.110 180.200 C 61.279 182.328,60.242 186.253,59.573 189.800 C 58.951 193.100,57.990 197.960,57.437 200.600 C 54.801 213.195,54.806 232.404,57.449 245.000 C 58.003 247.640,58.889 252.198,59.417 255.129 C 60.548 261.399,60.720 262.045,62.328 266.051 C 63.002 267.729,63.844 270.249,64.199 271.651 C 65.358 276.216,71.805 289.580,77.147 298.487 C 78.832 301.297,79.355 302.080,82.400 306.353 C 92.961 321.176,110.690 337.941,123.199 344.936 C 124.409 345.612,126.120 346.685,127.000 347.319 C 127.880 347.953,129.751 348.996,131.157 349.637 C 132.563 350.277,134.543 351.312,135.557 351.935 C 136.571 352.558,138.433 353.455,139.695 353.927 C 140.958 354.399,143.246 355.417,144.779 356.189 C 146.312 356.962,148.950 357.973,150.641 358.437 C 152.332 358.901,155.445 359.974,157.558 360.821 C 160.233 361.894,163.162 362.665,167.200 363.361 C 170.390 363.910,175.700 364.904,179.000 365.570 C 191.846 368.161,208.840 368.094,222.200 365.398 C 225.940 364.643,231.250 363.649,234.000 363.188 C 237.319 362.631,240.277 361.836,242.800 360.822 C 244.890 359.983,248.013 358.910,249.739 358.438 C 251.465 357.967,254.075 356.966,255.539 356.215 C 257.003 355.463,259.190 354.465,260.400 353.996 C 261.610 353.528,263.770 352.492,265.200 351.696 C 266.630 350.899,269.010 349.607,270.489 348.824 C 286.705 340.239,303.235 325.805,315.410 309.600 C 320.820 302.399,321.483 301.451,322.405 299.600 C 322.897 298.610,323.890 296.990,324.611 295.999 C 325.332 295.009,326.399 293.120,326.983 291.801 C 327.566 290.482,328.566 288.587,329.206 287.591 C 329.845 286.594,330.840 284.524,331.415 282.990 C 331.991 281.455,332.980 279.293,333.612 278.185 C 334.244 277.077,335.245 274.467,335.836 272.385 C 336.427 270.303,337.499 267.160,338.219 265.400 C 338.938 263.640,339.827 260.580,340.194 258.600 C 340.560 256.620,341.325 252.750,341.893 250.000 C 343.794 240.796,343.979 239.438,344.467 231.103 C 345.205 218.503,344.596 209.380,342.205 197.198 C 339.702 184.444,339.252 182.545,338.142 180.032 C 337.615 178.840,336.635 175.980,335.964 173.676 C 335.293 171.373,334.225 168.569,333.591 167.444 C 332.957 166.320,331.980 164.182,331.420 162.694 C 330.860 161.205,329.964 159.294,329.429 158.445 C 328.893 157.597,327.734 155.442,326.852 153.657 C 325.970 151.872,324.816 149.824,324.287 149.106 C 323.758 148.388,322.656 146.630,321.839 145.200 C 321.021 143.770,319.328 141.235,318.076 139.567 C 316.824 137.898,315.001 135.468,314.024 134.167 C 309.426 128.041,302.732 120.868,296.097 114.957 C 290.433 109.913,281.529 103.252,277.000 100.674 C 275.460 99.797,273.652 98.664,272.983 98.156 C 272.314 97.648,270.694 96.743,269.383 96.145 C 268.072 95.548,266.144 94.534,265.097 93.893 C 264.050 93.252,261.800 92.193,260.097 91.539 C 258.394 90.885,256.267 89.923,255.371 89.400 C 254.476 88.877,251.932 87.912,249.719 87.255 C 247.506 86.597,244.459 85.536,242.948 84.896 C 239.629 83.492,238.082 83.097,231.600 81.999 C 228.850 81.533,223.965 80.622,220.745 79.973 C 216.849 79.189,212.632 78.663,208.145 78.403 C 201.700 78.029,199.718 78.011,193.400 78.272 M208.800 85.989 C 218.737 86.406,221.158 86.735,228.000 88.598 C 230.750 89.346,234.620 90.250,236.600 90.606 C 238.580 90.962,241.820 91.939,243.800 92.777 C 245.780 93.615,248.480 94.607,249.800 94.981 C 251.120 95.355,253.460 96.337,255.000 97.163 C 256.540 97.990,258.880 99.089,260.200 99.607 C 261.520 100.124,263.237 100.943,264.015 101.425 C 264.793 101.908,266.503 102.845,267.815 103.507 C 285.896 112.642,308.160 134.981,319.531 155.400 C 323.415 162.373,327.346 170.691,328.229 173.800 C 328.604 175.120,329.534 177.621,330.296 179.358 C 331.076 181.135,332.089 184.547,332.611 187.158 C 333.122 189.711,333.918 193.170,334.379 194.843 C 338.089 208.308,338.181 236.280,334.559 250.000 C 334.008 252.090,333.142 255.872,332.635 258.405 C 332.115 261.008,331.105 264.399,330.312 266.205 C 329.541 267.962,328.606 270.480,328.235 271.800 C 327.640 273.915,324.994 279.826,322.237 285.200 C 309.175 310.660,288.626 331.307,263.000 344.719 C 258.338 347.159,251.095 350.364,248.881 350.967 C 247.495 351.344,245.264 352.171,243.922 352.806 C 242.581 353.440,240.114 354.262,238.441 354.632 C 232.921 355.854,229.048 356.783,225.393 357.762 C 214.759 360.611,185.206 360.471,174.000 357.519 C 171.470 356.852,167.366 355.881,164.880 355.361 C 162.395 354.841,159.245 353.947,157.880 353.373 C 156.516 352.799,153.780 351.798,151.800 351.149 C 147.375 349.698,139.457 345.960,131.600 341.613 C 117.559 333.844,100.442 318.676,90.800 305.457 C 89.810 304.100,88.370 302.141,87.600 301.105 C 84.888 297.456,77.883 285.555,76.769 282.703 C 76.317 281.546,75.336 279.482,74.590 278.116 C 73.844 276.750,72.844 274.320,72.369 272.716 C 71.894 271.112,70.884 268.399,70.125 266.688 C 69.365 264.976,68.301 261.466,67.759 258.888 C 67.217 256.309,66.258 252.130,65.626 249.600 C 62.347 236.455,62.364 208.788,65.660 196.000 C 66.312 193.470,67.262 189.313,67.772 186.763 C 68.313 184.055,69.285 180.810,70.108 178.963 C 70.884 177.223,71.821 174.720,72.192 173.400 C 72.563 172.080,73.721 169.290,74.765 167.200 C 75.810 165.110,76.907 162.770,77.205 162.000 C 77.502 161.230,78.333 159.666,79.052 158.524 C 79.771 157.383,80.744 155.673,81.216 154.724 C 83.084 150.964,89.901 141.082,94.844 134.969 C 103.064 124.803,119.324 110.920,130.115 104.853 C 136.781 101.106,138.888 100.008,141.000 99.181 C 142.320 98.665,144.264 97.737,145.319 97.120 C 146.375 96.503,148.445 95.628,149.919 95.176 C 151.394 94.723,154.126 93.712,155.992 92.927 C 157.914 92.119,161.726 91.020,164.792 90.390 C 167.766 89.779,171.730 88.830,173.600 88.282 C 179.237 86.628,183.985 86.134,198.600 85.677 C 199.480 85.650,204.070 85.790,208.800 85.989 M203.737 105.997 C 196.477 107.520,187.127 116.614,175.063 133.882 C 173.802 135.688,171.651 138.593,170.285 140.339 C 168.918 142.085,166.637 145.018,165.216 146.857 C 160.869 152.480,157.317 156.205,150.274 162.525 C 143.767 168.363,139.816 172.824,138.035 176.343 C 130.762 190.713,133.081 197.560,151.395 215.800 C 165.949 230.296,168.512 231.916,178.931 233.202 C 186.021 234.077,193.114 231.737,195.449 227.753 C 199.867 220.214,193.130 206.935,181.672 200.600 C 172.258 195.395,170.808 193.766,170.808 188.400 C 170.808 183.980,172.846 180.876,178.600 176.533 C 179.700 175.702,181.680 174.146,183.000 173.075 C 184.320 172.003,187.067 169.776,189.105 168.126 C 191.142 166.476,193.922 163.748,195.283 162.063 C 196.644 160.378,198.945 157.650,200.396 156.000 C 208.594 146.680,212.581 139.753,217.434 126.400 C 218.495 123.481,218.784 116.398,217.962 113.438 C 216.579 108.458,209.544 104.778,203.737 105.997 M202.861 167.207 C 195.651 168.719,194.868 175.598,201.128 182.444 C 203.114 184.616,215.474 193.320,219.400 195.311 C 225.996 198.657,226.570 204.532,220.948 211.167 C 217.537 215.194,203.580 230.000,203.197 230.000 C 203.010 230.000,201.018 232.025,198.771 234.500 C 192.198 241.737,173.896 260.094,168.847 264.515 C 151.587 279.626,130.090 305.993,128.977 313.416 C 128.144 318.966,136.734 322.498,149.588 321.892 C 158.065 321.493,162.068 318.729,167.369 309.618 C 169.987 305.117,176.053 298.113,193.076 279.935 C 204.767 267.451,205.925 267.216,212.718 275.949 C 214.193 277.846,217.747 282.099,220.617 285.400 C 229.625 295.765,235.088 303.012,237.471 307.760 C 241.000 314.789,246.198 319.291,252.845 321.074 C 257.315 322.273,269.602 322.099,272.199 320.800 C 278.627 317.585,277.339 312.700,266.872 300.602 C 261.564 294.467,260.066 292.457,256.431 286.591 C 242.920 264.787,239.451 261.387,227.812 258.538 C 220.941 256.857,219.278 254.971,221.187 251.028 C 222.597 248.115,236.652 233.384,250.752 220.043 C 267.804 203.907,269.517 198.149,260.821 186.186 C 249.728 170.925,246.273 168.930,230.000 168.383 C 224.610 168.202,218.670 167.872,216.800 167.651 C 211.484 167.020,204.771 166.807,202.861 167.207 " stroke="none" fill="#eaeaea" fill-rule="evenodd"></path><path id="path1" d="M171.541 35.588 C 163.370 36.017,160.328 36.699,157.722 38.687 C 156.609 39.536,155.654 39.764,151.291 40.220 C 145.306 40.846,144.583 41.075,142.417 43.032 C 140.915 44.389,140.532 44.527,137.344 44.850 C 132.713 45.319,131.064 45.869,129.076 47.605 C 127.778 48.739,126.813 49.182,124.800 49.566 C 121.945 50.111,120.824 50.700,119.007 52.608 C 118.105 53.555,117.317 53.940,115.893 54.131 C 113.415 54.463,111.729 55.335,110.000 57.178 C 108.963 58.284,108.150 58.742,106.863 58.946 C 104.620 59.301,102.506 60.402,101.000 61.999 C 100.340 62.699,99.260 63.550,98.600 63.890 C 97.940 64.230,97.040 64.965,96.600 65.524 C 95.084 67.450,94.397 68.000,93.500 68.009 C 91.993 68.023,89.185 69.519,87.651 71.123 C 86.853 71.958,85.548 73.037,84.751 73.522 C 83.954 74.006,82.886 75.009,82.379 75.749 C 81.871 76.490,80.854 77.420,80.119 77.816 C 79.383 78.212,78.404 79.147,77.942 79.894 C 77.481 80.640,76.407 81.691,75.556 82.228 C 74.704 82.765,73.549 83.898,72.989 84.745 C 72.428 85.592,71.532 86.485,70.998 86.728 C 70.463 86.972,69.485 87.918,68.824 88.830 C 68.163 89.743,66.918 90.946,66.057 91.505 C 65.196 92.063,64.203 93.124,63.851 93.863 C 63.499 94.601,62.647 95.548,61.959 95.967 C 61.270 96.385,60.211 97.477,59.606 98.392 C 59.000 99.307,57.853 100.498,57.056 101.039 C 56.260 101.580,55.311 102.599,54.947 103.303 C 54.582 104.007,53.514 105.332,52.572 106.248 C 51.223 107.559,50.681 108.513,50.015 110.750 C 49.430 112.714,48.900 113.733,48.293 114.057 C 47.096 114.698,46.618 115.219,45.831 116.740 C 45.461 117.456,44.442 118.737,43.566 119.586 C 42.100 121.009,41.279 122.714,40.629 125.688 C 40.498 126.287,39.680 127.434,38.811 128.238 C 37.206 129.723,36.265 131.828,35.770 135.038 C 35.579 136.278,35.235 136.843,34.357 137.362 C 32.864 138.244,32.074 139.806,31.438 143.130 C 31.023 145.298,30.659 146.068,29.499 147.224 C 27.876 148.843,27.339 150.472,26.663 155.824 C 26.237 159.188,26.097 159.571,24.928 160.554 C 23.237 161.976,22.482 164.415,22.044 169.871 C 21.733 173.755,21.550 174.519,20.648 175.701 C 18.763 178.173,18.016 181.509,17.549 189.549 C 17.013 198.761,17.339 254.778,17.947 258.000 C 18.568 261.293,19.650 264.255,20.662 265.432 C 21.580 266.501,21.786 267.491,22.193 272.791 C 22.508 276.897,23.094 278.595,24.790 280.323 C 26.144 281.702,26.272 282.051,26.715 285.600 C 27.380 290.917,27.858 292.322,29.581 294.028 C 30.814 295.249,31.136 295.905,31.364 297.659 C 31.727 300.466,32.903 302.852,34.339 303.700 C 35.226 304.224,35.556 304.781,35.759 306.092 C 36.288 309.516,37.199 311.532,38.789 312.791 C 39.999 313.750,40.425 314.446,40.814 316.102 C 41.459 318.852,41.781 319.443,43.856 321.683 C 44.815 322.718,45.600 323.776,45.600 324.033 C 45.600 324.290,46.489 325.361,47.575 326.413 C 48.969 327.764,49.680 328.837,49.994 330.063 C 50.626 332.535,51.545 334.157,52.786 334.991 C 53.378 335.388,54.289 336.518,54.810 337.502 C 55.332 338.486,56.398 339.700,57.180 340.201 C 57.961 340.701,59.034 341.830,59.565 342.708 C 60.095 343.586,61.047 344.610,61.680 344.983 C 62.312 345.357,63.274 346.367,63.818 347.228 C 64.361 348.089,65.520 349.244,66.392 349.795 C 67.264 350.345,68.264 351.349,68.613 352.026 C 68.963 352.703,69.861 353.617,70.609 354.058 C 71.357 354.499,72.602 355.742,73.377 356.821 C 74.151 357.899,75.193 358.888,75.693 359.020 C 76.192 359.151,77.089 359.959,77.687 360.816 C 78.284 361.672,79.466 362.811,80.314 363.346 C 81.161 363.880,82.188 364.828,82.597 365.451 C 83.439 366.737,84.802 367.967,85.406 367.987 C 85.629 367.994,86.579 368.792,87.517 369.760 C 89.368 371.670,91.253 372.729,93.429 373.082 C 94.416 373.242,95.176 373.759,96.055 374.869 C 96.735 375.728,97.968 376.776,98.795 377.198 C 99.623 377.620,100.727 378.468,101.250 379.082 C 102.610 380.682,103.969 381.462,106.579 382.144 C 108.282 382.589,109.274 383.156,110.456 384.362 C 112.004 385.942,114.910 387.200,117.008 387.200 C 117.484 387.200,118.439 387.824,119.136 388.590 C 120.773 390.389,122.356 391.185,124.891 391.485 C 126.422 391.667,127.300 392.051,128.370 393.009 C 130.888 395.266,134.389 396.388,138.939 396.397 C 140.161 396.399,140.850 396.728,142.290 397.995 C 144.492 399.934,145.703 400.305,151.536 400.831 C 155.708 401.206,156.238 401.350,158.157 402.624 C 162.315 405.385,178.998 406.320,214.800 405.799 C 239.592 405.438,243.380 405.043,247.003 402.441 C 248.495 401.369,249.145 401.201,253.235 400.833 C 259.063 400.308,260.306 399.934,262.449 398.058 C 264.063 396.645,264.443 396.505,267.304 396.267 C 272.004 395.877,273.717 395.312,275.933 393.420 C 277.518 392.067,278.335 391.672,279.941 391.482 C 282.445 391.185,284.032 390.383,285.664 388.590 C 286.361 387.824,287.316 387.200,287.792 387.200 C 290.020 387.200,292.976 385.892,294.656 384.163 C 295.599 383.193,296.614 382.400,296.912 382.400 C 298.740 382.400,301.673 381.051,303.073 379.567 C 303.913 378.678,305.193 377.667,305.917 377.321 C 306.642 376.975,307.878 375.907,308.665 374.946 C 309.452 373.986,310.428 373.200,310.833 373.200 C 312.751 373.200,315.964 371.527,317.391 369.785 C 318.196 368.803,319.067 367.994,319.327 367.987 C 319.983 367.968,321.195 366.872,322.520 365.099 C 323.137 364.274,323.857 363.593,324.120 363.584 C 324.777 363.561,327.011 361.557,327.315 360.717 C 327.451 360.341,328.269 359.588,329.132 359.043 C 329.996 358.497,331.107 357.398,331.600 356.600 C 332.093 355.802,333.173 354.722,334.000 354.200 C 334.827 353.678,335.891 352.624,336.365 351.857 C 336.838 351.091,337.840 350.101,338.591 349.658 C 339.342 349.215,340.410 348.135,340.964 347.258 C 341.517 346.380,342.488 345.357,343.120 344.983 C 343.753 344.610,344.705 343.600,345.235 342.740 C 345.766 341.880,346.839 340.753,347.619 340.236 C 348.399 339.719,349.466 338.490,349.988 337.505 C 350.511 336.520,351.422 335.388,352.014 334.991 C 353.281 334.139,354.173 332.574,355.002 329.746 C 355.436 328.264,355.994 327.395,357.005 326.623 C 357.777 326.035,358.749 324.884,359.167 324.066 C 359.584 323.247,360.478 322.120,361.154 321.560 C 362.479 320.462,363.770 317.903,364.213 315.498 C 364.412 314.419,364.919 313.656,366.016 312.787 C 367.600 311.532,368.513 309.512,369.041 306.092 C 369.244 304.781,369.574 304.224,370.461 303.700 C 371.897 302.852,373.073 300.466,373.436 297.659 C 373.664 295.905,373.986 295.249,375.219 294.028 C 376.942 292.322,377.420 290.917,378.085 285.600 C 378.528 282.051,378.656 281.702,380.010 280.323 C 381.706 278.595,382.292 276.897,382.607 272.791 C 383.021 267.399,383.214 266.508,384.218 265.341 C 387.269 261.795,387.686 256.412,387.681 220.600 C 387.677 184.589,387.343 180.126,384.337 175.976 C 383.222 174.437,383.077 173.876,382.753 169.841 C 382.306 164.266,381.555 161.917,379.764 160.488 C 378.736 159.668,378.400 159.093,378.400 158.152 C 378.400 154.757,376.497 147.236,375.626 147.187 C 374.654 147.133,373.856 145.733,373.384 143.255 C 372.728 139.810,371.950 138.252,370.443 137.362 C 369.565 136.843,369.221 136.278,369.030 135.038 C 368.544 131.882,367.575 129.661,366.135 128.396 C 365.035 127.431,364.507 126.456,363.752 124.000 C 362.997 121.540,362.485 120.597,361.432 119.722 C 360.688 119.105,359.663 117.880,359.152 117.000 C 358.054 115.105,357.673 114.681,356.507 114.057 C 355.896 113.730,355.371 112.711,354.774 110.694 C 354.086 108.367,353.584 107.486,352.217 106.200 C 351.282 105.320,350.223 104.029,349.864 103.332 C 349.506 102.634,348.624 101.648,347.906 101.140 C 346.509 100.154,345.235 98.801,345.213 98.283 C 345.195 97.841,344.027 96.699,342.553 95.681 C 341.867 95.208,341.093 94.306,340.832 93.678 C 340.572 93.049,339.689 92.111,338.870 91.594 C 338.051 91.077,336.890 89.964,336.290 89.120 C 335.690 88.277,334.644 87.250,333.966 86.838 C 333.289 86.426,332.285 85.427,331.736 84.619 C 331.187 83.811,330.168 82.804,329.472 82.380 C 328.776 81.957,327.748 80.933,327.188 80.105 C 326.628 79.277,325.528 78.253,324.744 77.828 C 323.959 77.404,322.908 76.459,322.408 75.730 C 321.908 75.000,320.846 74.001,320.049 73.510 C 319.252 73.020,317.781 71.789,316.781 70.775 C 315.304 69.279,314.459 68.797,312.290 68.209 C 310.312 67.674,309.442 67.215,308.942 66.443 C 308.158 65.233,306.836 64.000,306.322 64.000 C 306.126 64.000,305.118 63.214,304.083 62.253 C 301.847 60.177,300.267 59.316,298.043 58.960 C 296.816 58.764,295.973 58.254,294.701 56.938 C 293.039 55.217,290.342 54.000,288.193 54.000 C 287.718 54.000,286.550 53.258,285.597 52.351 C 283.634 50.484,282.248 49.821,279.469 49.420 C 278.074 49.219,277.116 48.761,276.021 47.772 C 274.068 46.007,272.022 45.306,267.493 44.852 C 264.289 44.531,263.720 44.355,262.941 43.449 C 261.278 41.516,259.278 40.823,253.658 40.236 C 249.211 39.770,248.183 39.532,247.093 38.714 C 245.176 37.276,242.788 36.456,239.097 35.970 C 235.121 35.446,180.160 35.135,171.541 35.588 M222.429 76.166 C 225.559 76.546,229.141 77.304,231.914 78.173 C 234.365 78.942,238.042 79.858,240.085 80.209 C 242.479 80.620,245.009 81.400,247.200 82.402 C 249.070 83.257,252.040 84.342,253.800 84.813 C 255.560 85.285,258.170 86.356,259.600 87.193 C 261.030 88.030,263.119 89.010,264.242 89.370 C 265.365 89.731,267.131 90.563,268.166 91.219 C 269.200 91.875,271.162 92.970,272.524 93.652 C 273.886 94.335,275.834 95.486,276.852 96.211 C 277.871 96.937,279.311 97.842,280.052 98.224 C 281.515 98.977,288.020 103.590,292.562 107.095 C 300.073 112.893,310.926 123.941,316.853 131.823 C 322.878 139.837,323.417 140.588,324.578 142.600 C 325.213 143.700,326.141 145.142,326.641 145.804 C 327.140 146.466,328.200 148.327,328.997 149.939 C 329.793 151.551,330.965 153.587,331.600 154.464 C 332.235 155.340,333.058 156.990,333.428 158.129 C 333.798 159.268,334.870 161.640,335.809 163.400 C 336.749 165.160,337.820 167.680,338.191 169.000 C 338.562 170.320,339.559 172.949,340.406 174.843 C 341.411 177.086,342.248 179.874,342.807 182.843 C 343.280 185.349,344.110 188.660,344.652 190.200 C 346.986 196.830,347.597 203.593,347.597 222.800 C 347.597 242.057,347.000 248.626,344.623 255.557 C 344.065 257.183,343.235 260.513,342.778 262.957 C 342.233 265.873,341.418 268.568,340.406 270.800 C 339.559 272.670,338.474 275.550,337.996 277.200 C 337.519 278.850,336.587 281.053,335.925 282.095 C 335.264 283.138,334.231 285.298,333.629 286.895 C 333.028 288.493,331.785 290.953,330.868 292.362 C 329.951 293.771,329.200 295.146,329.200 295.418 C 329.200 296.057,323.564 304.787,319.878 309.858 C 315.684 315.627,314.151 317.506,309.504 322.572 C 304.469 328.062,295.917 336.029,291.352 339.482 C 285.046 344.253,276.333 350.037,272.800 351.799 C 271.590 352.402,269.610 353.495,268.400 354.228 C 267.190 354.961,265.141 355.951,263.847 356.429 C 262.553 356.906,260.483 357.894,259.247 358.624 C 258.011 359.353,255.355 360.409,253.344 360.969 C 251.334 361.529,248.454 362.608,246.944 363.367 C 244.964 364.363,242.892 364.978,239.500 365.577 C 236.916 366.033,233.595 366.861,232.120 367.415 C 221.490 371.417,180.963 371.519,168.600 367.575 C 166.620 366.944,162.840 365.996,160.200 365.470 C 156.925 364.818,154.510 364.066,152.600 363.106 C 151.060 362.331,148.360 361.305,146.600 360.825 C 144.840 360.345,142.315 359.346,140.988 358.606 C 139.662 357.865,137.365 356.804,135.884 356.246 C 134.403 355.689,132.429 354.709,131.496 354.070 C 130.563 353.430,128.631 352.318,127.203 351.598 C 125.774 350.879,123.614 349.616,122.403 348.792 C 121.191 347.968,119.390 346.813,118.400 346.225 C 108.135 340.128,91.354 324.505,82.888 313.165 C 77.432 305.857,76.483 304.521,75.803 303.186 C 75.414 302.424,74.511 300.990,73.796 300.000 C 71.030 296.171,62.846 279.689,61.979 276.200 C 61.705 275.100,60.816 272.760,60.002 271.000 C 58.513 267.779,57.995 265.984,57.175 261.200 C 56.929 259.770,56.129 256.800,55.395 254.600 C 51.971 244.328,51.340 205.313,54.423 194.415 C 54.829 192.977,55.604 190.270,56.143 188.400 C 56.683 186.530,57.392 183.535,57.720 181.745 C 58.048 179.955,59.027 176.895,59.894 174.945 C 60.762 172.995,61.786 170.230,62.169 168.800 C 62.553 167.370,63.547 165.030,64.379 163.600 C 65.210 162.170,66.191 160.081,66.558 158.958 C 66.925 157.835,67.763 156.069,68.419 155.034 C 69.075 154.000,70.169 152.038,70.848 150.676 C 72.865 146.637,78.662 137.934,83.991 130.948 C 87.073 126.908,94.283 119.202,99.750 114.105 C 105.696 108.561,116.430 100.175,119.600 98.598 C 120.370 98.215,121.846 97.300,122.880 96.566 C 123.914 95.831,126.010 94.600,127.540 93.830 C 129.069 93.060,130.972 91.988,131.770 91.446 C 132.567 90.905,134.487 89.978,136.036 89.386 C 137.585 88.794,139.833 87.720,141.031 86.998 C 142.229 86.277,144.423 85.373,145.905 84.989 C 147.387 84.606,150.191 83.576,152.135 82.701 C 154.474 81.648,157.317 80.784,160.535 80.149 C 163.211 79.621,166.708 78.741,168.307 78.193 C 176.579 75.360,206.528 74.239,222.429 76.166 M190.800 89.244 C 189.150 89.431,185.640 90.034,183.000 90.584 C 180.360 91.133,175.290 92.031,171.733 92.580 C 166.865 93.330,164.441 93.918,161.933 94.955 C 160.100 95.714,157.070 96.722,155.200 97.195 C 153.330 97.669,150.715 98.661,149.388 99.399 C 148.062 100.137,145.745 101.204,144.241 101.770 C 142.736 102.337,140.491 103.412,139.252 104.160 C 138.014 104.908,136.290 105.813,135.422 106.172 C 129.330 108.690,114.069 120.271,105.521 128.862 C 99.038 135.377,90.675 145.774,87.872 150.800 C 87.198 152.010,86.250 153.540,85.767 154.200 C 85.283 154.860,84.220 156.735,83.405 158.368 C 82.589 160.000,81.497 161.980,80.978 162.768 C 80.458 163.555,79.588 165.386,79.044 166.836 C 78.500 168.287,77.425 170.627,76.655 172.036 C 75.885 173.446,74.892 176.073,74.448 177.874 C 74.004 179.675,73.015 182.659,72.250 184.507 C 70.805 187.996,70.358 190.000,69.594 196.400 C 69.345 198.490,68.625 202.543,67.995 205.406 C 65.418 217.112,65.352 228.461,67.798 239.200 C 68.324 241.510,69.040 245.470,69.389 248.000 C 70.543 256.378,70.824 257.642,72.390 261.537 C 73.244 263.661,74.234 266.659,74.589 268.197 C 74.943 269.736,75.868 272.150,76.644 273.561 C 77.420 274.972,78.478 277.251,78.995 278.625 C 79.512 279.998,80.759 282.531,81.767 284.253 C 82.775 285.974,83.600 287.582,83.600 287.825 C 83.600 288.068,84.324 289.300,85.208 290.563 C 86.093 291.826,87.249 293.701,87.778 294.729 C 88.666 296.457,90.483 298.949,97.104 307.521 C 102.967 315.112,118.626 329.327,126.159 333.897 C 126.796 334.284,128.596 335.426,130.159 336.435 C 133.917 338.863,141.791 342.978,144.962 344.171 C 146.357 344.696,148.197 345.559,149.049 346.088 C 151.068 347.339,152.404 347.839,155.747 348.592 C 157.258 348.932,159.874 349.817,161.561 350.559 C 164.888 352.022,166.582 352.422,173.600 353.405 C 176.130 353.760,179.787 354.402,181.726 354.832 C 193.535 357.450,206.876 357.382,219.600 354.638 C 222.130 354.093,226.450 353.355,229.200 352.998 C 233.067 352.496,235.074 351.997,238.056 350.796 C 240.177 349.941,243.406 348.870,245.233 348.416 C 247.059 347.961,249.717 346.949,251.140 346.167 C 252.563 345.385,254.899 344.304,256.332 343.765 C 257.765 343.225,259.829 342.235,260.919 341.565 C 262.009 340.894,263.894 339.906,265.107 339.370 C 266.320 338.833,268.171 337.778,269.220 337.024 C 270.270 336.270,271.819 335.297,272.664 334.863 C 273.509 334.428,275.370 333.161,276.800 332.046 C 278.230 330.932,280.734 328.981,282.365 327.710 C 290.371 321.473,299.376 312.528,304.800 305.427 C 306.450 303.267,308.552 300.551,309.471 299.391 C 310.389 298.232,311.539 296.500,312.025 295.542 C 312.512 294.584,313.469 292.990,314.154 292.000 C 315.519 290.025,317.995 285.461,320.230 280.800 C 324.069 272.796,325.604 269.341,325.602 268.715 C 325.599 267.840,327.219 262.939,328.587 259.684 C 329.329 257.920,329.885 255.349,330.448 251.084 C 330.891 247.738,331.682 242.998,332.208 240.552 C 333.673 233.733,334.138 227.978,333.883 219.834 C 333.671 213.074,333.346 210.457,331.838 203.400 C 331.508 201.860,330.947 198.260,330.590 195.400 C 329.816 189.203,329.491 187.834,327.967 184.339 C 327.328 182.876,326.374 180.086,325.847 178.139 C 324.962 174.872,322.963 170.162,319.931 164.200 C 319.260 162.880,318.077 160.540,317.304 159.000 C 316.530 157.460,315.299 155.358,314.569 154.329 C 313.840 153.299,312.801 151.589,312.262 150.529 C 311.723 149.468,310.639 147.790,309.854 146.800 C 308.509 145.102,307.004 143.141,303.103 138.000 C 299.226 132.890,289.592 123.567,282.412 117.976 C 280.593 116.559,278.001 114.529,276.652 113.464 C 275.303 112.399,273.480 111.161,272.600 110.713 C 271.720 110.266,270.190 109.310,269.199 108.589 C 268.209 107.868,266.320 106.801,265.001 106.217 C 263.682 105.634,261.787 104.634,260.791 103.994 C 259.794 103.355,257.729 102.361,256.201 101.786 C 254.673 101.211,252.338 100.135,251.012 99.396 C 249.685 98.656,246.980 97.650,245.000 97.159 C 243.020 96.668,239.960 95.654,238.200 94.905 C 235.730 93.853,233.533 93.322,228.565 92.578 C 225.026 92.048,220.076 91.173,217.565 90.634 C 209.319 88.863,198.919 88.323,190.800 89.244 M214.500 103.887 C 222.875 107.714,225.746 119.367,220.972 130.153 C 220.182 131.939,219.027 134.753,218.405 136.408 C 217.335 139.257,216.799 140.286,212.886 147.000 C 211.988 148.540,209.603 151.870,207.584 154.400 C 201.983 161.422,201.976 161.822,207.451 162.415 C 212.045 162.913,227.344 163.608,233.616 163.604 C 245.265 163.596,253.212 168.460,262.442 181.248 C 274.916 198.531,273.648 203.081,249.754 226.800 C 241.179 235.313,229.763 247.427,228.279 249.589 C 226.640 251.977,227.701 253.385,232.200 254.792 C 242.120 257.894,249.249 265.600,260.513 285.400 C 262.401 288.720,264.944 292.113,270.344 298.520 C 278.161 307.793,279.398 310.260,279.124 316.025 C 278.873 321.294,277.172 323.451,272.502 324.420 C 269.089 325.129,251.238 324.713,248.582 323.863 C 244.352 322.510,237.404 316.417,235.034 311.982 C 231.232 304.868,227.666 300.302,208.885 278.499 C 204.973 273.958,204.627 274.123,193.637 285.772 C 179.707 300.538,172.496 308.946,169.765 313.606 C 164.258 323.001,160.630 324.783,147.000 324.784 C 135.283 324.784,132.009 324.139,128.617 321.161 C 123.294 316.488,124.582 309.939,133.160 298.051 C 144.315 282.593,152.480 273.267,163.798 263.055 C 179.126 249.226,188.197 239.664,187.064 238.531 C 186.608 238.075,183.348 237.634,180.200 237.603 C 169.085 237.494,165.040 235.025,148.335 218.146 C 133.614 203.273,130.400 198.087,130.400 189.211 C 130.400 179.603,135.644 169.999,146.228 160.223 C 156.332 150.890,160.874 145.747,169.213 134.200 C 184.626 112.858,192.519 105.124,201.000 103.052 C 203.407 102.463,212.635 103.034,214.500 103.887 M188.191 175.179 C 186.975 175.672,179.533 181.293,177.482 183.268 C 173.597 187.008,174.066 191.801,178.538 194.063 C 187.488 198.592,193.594 203.523,196.288 208.400 C 197.078 209.830,198.120 211.540,198.603 212.200 C 200.143 214.304,200.700 215.727,201.167 218.747 C 202.114 224.882,202.745 224.757,210.321 216.920 C 222.029 204.810,222.837 202.003,215.763 198.019 C 203.754 191.255,196.407 185.141,193.583 179.560 C 191.475 175.396,190.204 174.363,188.191 175.179 " stroke="none" fill="#000000" fill-rule="evenodd"></path><path id="path2" d="M184.045 75.618 C 177.132 76.049,172.224 76.852,168.307 78.193 C 166.708 78.741,163.211 79.621,160.535 80.149 C 157.317 80.784,154.474 81.648,152.135 82.701 C 150.191 83.576,147.387 84.606,145.905 84.989 C 144.423 85.373,142.229 86.277,141.031 86.998 C 139.833 87.720,137.585 88.794,136.036 89.386 C 134.487 89.978,132.567 90.905,131.770 91.446 C 130.972 91.988,129.069 93.060,127.540 93.830 C 126.010 94.600,123.914 95.831,122.880 96.566 C 121.846 97.300,120.370 98.215,119.600 98.598 C 116.430 100.175,105.696 108.561,99.750 114.105 C 94.283 119.202,87.073 126.908,83.991 130.948 C 78.662 137.934,72.865 146.637,70.848 150.676 C 70.169 152.038,69.075 154.000,68.419 155.034 C 67.763 156.069,66.925 157.835,66.558 158.958 C 66.191 160.081,65.210 162.170,64.379 163.600 C 63.547 165.030,62.553 167.370,62.169 168.800 C 61.786 170.230,60.762 172.995,59.894 174.945 C 59.027 176.895,58.048 179.955,57.720 181.745 C 57.392 183.535,56.683 186.530,56.143 188.400 C 55.604 190.270,54.829 192.977,54.423 194.415 C 51.340 205.313,51.971 244.328,55.395 254.600 C 56.129 256.800,56.929 259.770,57.175 261.200 C 57.995 265.984,58.513 267.779,60.002 271.000 C 60.816 272.760,61.705 275.100,61.979 276.200 C 62.846 279.689,71.030 296.171,73.796 300.000 C 74.511 300.990,75.414 302.424,75.803 303.186 C 76.483 304.521,77.432 305.857,82.888 313.165 C 91.354 324.505,108.135 340.128,118.400 346.225 C 119.390 346.813,121.191 347.968,122.403 348.792 C 123.614 349.616,125.774 350.879,127.203 351.598 C 128.631 352.318,130.563 353.430,131.496 354.070 C 132.429 354.709,134.403 355.689,135.884 356.246 C 137.365 356.804,139.662 357.865,140.988 358.606 C 142.315 359.346,144.840 360.345,146.600 360.825 C 148.360 361.305,151.060 362.331,152.600 363.106 C 154.510 364.066,156.925 364.818,160.200 365.470 C 162.840 365.996,166.620 366.944,168.600 367.575 C 180.963 371.519,221.490 371.417,232.120 367.415 C 233.595 366.861,236.916 366.033,239.500 365.577 C 242.892 364.978,244.964 364.363,246.944 363.367 C 248.454 362.608,251.334 361.529,253.344 360.969 C 255.355 360.409,258.011 359.353,259.247 358.624 C 260.483 357.894,262.553 356.906,263.847 356.429 C 265.141 355.951,267.190 354.961,268.400 354.228 C 269.610 353.495,271.590 352.402,272.800 351.799 C 276.333 350.037,285.046 344.253,291.352 339.482 C 295.917 336.029,304.469 328.062,309.504 322.572 C 314.151 317.506,315.684 315.627,319.878 309.858 C 323.564 304.787,329.200 296.057,329.200 295.418 C 329.200 295.146,329.951 293.771,330.868 292.362 C 331.785 290.953,333.028 288.493,333.629 286.895 C 334.231 285.298,335.264 283.138,335.925 282.095 C 336.587 281.053,337.519 278.850,337.996 277.200 C 338.474 275.550,339.559 272.670,340.406 270.800 C 341.418 268.568,342.233 265.873,342.778 262.957 C 343.235 260.513,344.065 257.183,344.623 255.557 C 348.889 243.118,348.907 202.289,344.652 190.200 C 344.110 188.660,343.280 185.349,342.807 182.843 C 342.248 179.874,341.411 177.086,340.406 174.843 C 339.559 172.949,338.562 170.320,338.191 169.000 C 337.820 167.680,336.749 165.160,335.809 163.400 C 334.870 161.640,333.798 159.268,333.428 158.129 C 333.058 156.990,332.235 155.340,331.600 154.464 C 330.965 153.587,329.793 151.551,328.997 149.939 C 328.200 148.327,327.140 146.466,326.641 145.804 C 326.141 145.142,325.213 143.700,324.578 142.600 C 323.417 140.588,322.878 139.837,316.853 131.823 C 310.926 123.941,300.073 112.893,292.562 107.095 C 288.020 103.590,281.515 98.977,280.052 98.224 C 279.311 97.842,277.871 96.937,276.852 96.211 C 275.834 95.486,273.886 94.335,272.524 93.652 C 271.162 92.970,269.200 91.875,268.166 91.219 C 267.131 90.563,265.365 89.731,264.242 89.370 C 263.119 89.010,261.030 88.030,259.600 87.193 C 258.170 86.356,255.560 85.285,253.800 84.813 C 252.040 84.342,249.070 83.257,247.200 82.402 C 245.009 81.400,242.479 80.620,240.085 80.209 C 238.042 79.858,234.365 78.942,231.914 78.173 C 224.068 75.713,201.679 74.518,184.045 75.618 M208.145 78.403 C 212.632 78.663,216.849 79.189,220.745 79.973 C 223.965 80.622,228.850 81.533,231.600 81.999 C 238.082 83.097,239.629 83.492,242.948 84.896 C 244.459 85.536,247.506 86.597,249.719 87.255 C 251.932 87.912,254.476 88.877,255.371 89.400 C 256.267 89.923,258.394 90.885,260.097 91.539 C 261.800 92.193,264.050 93.252,265.097 93.893 C 266.144 94.534,268.072 95.548,269.383 96.145 C 270.694 96.743,272.314 97.648,272.983 98.156 C 273.652 98.664,275.460 99.797,277.000 100.674 C 281.529 103.252,290.433 109.913,296.097 114.957 C 302.732 120.868,309.426 128.041,314.024 134.167 C 315.001 135.468,316.824 137.898,318.076 139.567 C 319.328 141.235,321.021 143.770,321.839 145.200 C 322.656 146.630,323.758 148.388,324.287 149.106 C 324.816 149.824,325.970 151.872,326.852 153.657 C 327.734 155.442,328.893 157.597,329.429 158.445 C 329.964 159.294,330.860 161.205,331.420 162.694 C 331.980 164.182,332.957 166.320,333.591 167.444 C 334.225 168.569,335.293 171.373,335.964 173.676 C 336.635 175.980,337.615 178.840,338.142 180.032 C 339.252 182.545,339.702 184.444,342.205 197.198 C 344.596 209.380,345.205 218.503,344.467 231.103 C 343.979 239.438,343.794 240.796,341.893 250.000 C 341.325 252.750,340.560 256.620,340.194 258.600 C 339.827 260.580,338.938 263.640,338.219 265.400 C 337.499 267.160,336.427 270.303,335.836 272.385 C 335.245 274.467,334.244 277.077,333.612 278.185 C 332.980 279.293,331.991 281.455,331.415 282.990 C 330.840 284.524,329.845 286.594,329.206 287.591 C 328.566 288.587,327.566 290.482,326.983 291.801 C 326.399 293.120,325.332 295.009,324.611 295.999 C 323.890 296.990,322.897 298.610,322.405 299.600 C 321.483 301.451,320.820 302.399,315.410 309.600 C 303.235 325.805,286.705 340.239,270.489 348.824 C 269.010 349.607,266.630 350.899,265.200 351.696 C 263.770 352.492,261.610 353.528,260.400 353.996 C 259.190 354.465,257.003 355.463,255.539 356.215 C 254.075 356.966,251.465 357.967,249.739 358.438 C 248.013 358.910,244.890 359.983,242.800 360.822 C 240.277 361.836,237.319 362.631,234.000 363.188 C 231.250 363.649,225.940 364.643,222.200 365.398 C 208.840 368.094,191.846 368.161,179.000 365.570 C 175.700 364.904,170.390 363.910,167.200 363.361 C 163.162 362.665,160.233 361.894,157.558 360.821 C 155.445 359.974,152.332 358.901,150.641 358.437 C 148.950 357.973,146.312 356.962,144.779 356.189 C 143.246 355.417,140.958 354.399,139.695 353.927 C 138.433 353.455,136.571 352.558,135.557 351.935 C 134.543 351.312,132.563 350.277,131.157 349.637 C 129.751 348.996,127.880 347.953,127.000 347.319 C 126.120 346.685,124.409 345.612,123.199 344.936 C 110.690 337.941,92.961 321.176,82.400 306.353 C 79.355 302.080,78.832 301.297,77.147 298.487 C 71.805 289.580,65.358 276.216,64.199 271.651 C 63.844 270.249,63.002 267.729,62.328 266.051 C 60.720 262.045,60.548 261.399,59.417 255.129 C 58.889 252.198,58.003 247.640,57.449 245.000 C 54.806 232.404,54.801 213.195,57.437 200.600 C 57.990 197.960,58.951 193.100,59.573 189.800 C 60.242 186.253,61.279 182.328,62.110 180.200 C 62.883 178.220,63.824 175.430,64.202 174.000 C 64.868 171.479,67.953 164.297,70.472 159.400 C 71.151 158.080,72.391 155.622,73.227 153.938 C 74.063 152.253,75.368 150.003,76.126 148.938 C 76.884 147.872,77.877 146.280,78.333 145.400 C 79.091 143.937,80.807 141.504,86.114 134.372 C 94.809 122.687,112.231 106.851,123.000 100.847 C 124.320 100.111,125.940 99.111,126.600 98.625 C 130.105 96.044,146.174 88.502,151.385 86.993 C 153.357 86.421,156.230 85.401,157.770 84.725 C 159.539 83.949,162.564 83.141,165.985 82.533 C 168.963 82.002,174.010 81.039,177.200 80.391 C 184.932 78.821,189.359 78.348,198.800 78.084 C 200.230 78.044,204.435 78.188,208.145 78.403 M190.200 86.014 C 182.321 86.347,178.342 86.891,173.600 88.282 C 171.730 88.830,167.766 89.779,164.792 90.390 C 161.726 91.020,157.914 92.119,155.992 92.927 C 154.126 93.712,151.394 94.723,149.919 95.176 C 148.445 95.628,146.375 96.503,145.319 97.120 C 144.264 97.737,142.320 98.665,141.000 99.181 C 138.888 100.008,136.781 101.106,130.115 104.853 C 119.324 110.920,103.064 124.803,94.844 134.969 C 89.901 141.082,83.084 150.964,81.216 154.724 C 80.744 155.673,79.771 157.383,79.052 158.524 C 78.333 159.666,77.502 161.230,77.205 162.000 C 76.907 162.770,75.810 165.110,74.765 167.200 C 73.721 169.290,72.563 172.080,72.192 173.400 C 71.821 174.720,70.884 177.223,70.108 178.963 C 69.285 180.810,68.313 184.055,67.772 186.763 C 67.262 189.313,66.312 193.470,65.660 196.000 C 62.364 208.788,62.347 236.455,65.626 249.600 C 66.258 252.130,67.217 256.309,67.759 258.888 C 68.301 261.466,69.365 264.976,70.125 266.688 C 70.884 268.399,71.894 271.112,72.369 272.716 C 72.844 274.320,73.844 276.750,74.590 278.116 C 75.336 279.482,76.317 281.546,76.769 282.703 C 77.883 285.555,84.888 297.456,87.600 301.105 C 88.370 302.141,89.810 304.100,90.800 305.457 C 100.442 318.676,117.559 333.844,131.600 341.613 C 139.457 345.960,147.375 349.698,151.800 351.149 C 153.780 351.798,156.516 352.799,157.880 353.373 C 159.245 353.947,162.395 354.841,164.880 355.361 C 167.366 355.881,171.470 356.852,174.000 357.519 C 185.206 360.471,214.759 360.611,225.393 357.762 C 229.048 356.783,232.921 355.854,238.441 354.632 C 240.114 354.262,242.581 353.440,243.922 352.806 C 245.264 352.171,247.495 351.344,248.881 350.967 C 251.095 350.364,258.338 347.159,263.000 344.719 C 288.626 331.307,309.175 310.660,322.237 285.200 C 324.994 279.826,327.640 273.915,328.235 271.800 C 328.606 270.480,329.541 267.962,330.312 266.205 C 331.105 264.399,332.115 261.008,332.635 258.405 C 333.142 255.872,334.008 252.090,334.559 250.000 C 338.181 236.280,338.089 208.308,334.379 194.843 C 333.918 193.170,333.122 189.711,332.611 187.158 C 332.089 184.547,331.076 181.135,330.296 179.358 C 329.534 177.621,328.604 175.120,328.229 173.800 C 327.346 170.691,323.415 162.373,319.531 155.400 C 310.484 139.154,296.135 123.043,281.042 112.184 C 275.507 108.202,270.145 104.684,267.815 103.507 C 266.503 102.845,264.793 101.908,264.015 101.425 C 263.237 100.943,261.520 100.124,260.200 99.607 C 258.880 99.089,256.540 97.990,255.000 97.163 C 253.460 96.337,251.120 95.355,249.800 94.981 C 248.480 94.607,245.780 93.615,243.800 92.777 C 241.820 91.939,238.580 90.962,236.600 90.606 C 234.620 90.250,230.750 89.346,228.000 88.598 C 220.723 86.617,208.234 85.376,198.600 85.677 C 197.720 85.705,193.940 85.856,190.200 86.014 M209.116 89.227 C 211.252 89.461,215.054 90.095,217.565 90.634 C 220.076 91.173,225.026 92.048,228.565 92.578 C 233.533 93.322,235.730 93.853,238.200 94.905 C 239.960 95.654,243.020 96.668,245.000 97.159 C 246.980 97.650,249.685 98.656,251.012 99.396 C 252.338 100.135,254.673 101.211,256.201 101.786 C 257.729 102.361,259.794 103.355,260.791 103.994 C 261.787 104.634,263.682 105.634,265.001 106.217 C 266.320 106.801,268.209 107.868,269.199 108.589 C 270.190 109.310,271.720 110.266,272.600 110.713 C 273.480 111.161,275.303 112.399,276.652 113.464 C 278.001 114.529,280.593 116.559,282.412 117.976 C 289.592 123.567,299.226 132.890,303.103 138.000 C 307.004 143.141,308.509 145.102,309.854 146.800 C 310.639 147.790,311.723 149.468,312.262 150.529 C 312.801 151.589,313.840 153.299,314.569 154.329 C 315.299 155.358,316.530 157.460,317.304 159.000 C 318.077 160.540,319.260 162.880,319.931 164.200 C 322.963 170.162,324.962 174.872,325.847 178.139 C 326.374 180.086,327.328 182.876,327.967 184.339 C 329.491 187.834,329.816 189.203,330.590 195.400 C 330.947 198.260,331.508 201.860,331.838 203.400 C 333.346 210.457,333.671 213.074,333.883 219.834 C 334.138 227.978,333.673 233.733,332.208 240.552 C 331.682 242.998,330.891 247.738,330.448 251.084 C 329.885 255.349,329.329 257.920,328.587 259.684 C 327.219 262.939,325.599 267.840,325.602 268.715 C 325.604 269.341,324.069 272.796,320.230 280.800 C 317.995 285.461,315.519 290.025,314.154 292.000 C 313.469 292.990,312.512 294.584,312.025 295.542 C 311.539 296.500,310.389 298.232,309.471 299.391 C 308.552 300.551,306.450 303.267,304.800 305.427 C 299.376 312.528,290.371 321.473,282.365 327.710 C 280.734 328.981,278.230 330.932,276.800 332.046 C 275.370 333.161,273.509 334.428,272.664 334.863 C 271.819 335.297,270.270 336.270,269.220 337.024 C 268.171 337.778,266.320 338.833,265.107 339.370 C 263.894 339.906,262.009 340.894,260.919 341.565 C 259.829 342.235,257.765 343.225,256.332 343.765 C 254.899 344.304,252.563 345.385,251.140 346.167 C 249.717 346.949,247.059 347.961,245.233 348.416 C 243.406 348.870,240.177 349.941,238.056 350.796 C 235.074 351.997,233.067 352.496,229.200 352.998 C 226.450 353.355,222.130 354.093,219.600 354.638 C 206.876 357.382,193.535 357.450,181.726 354.832 C 179.787 354.402,176.130 353.760,173.600 353.405 C 166.582 352.422,164.888 352.022,161.561 350.559 C 159.874 349.817,157.258 348.932,155.747 348.592 C 152.404 347.839,151.068 347.339,149.049 346.088 C 148.197 345.559,146.357 344.696,144.962 344.171 C 141.791 342.978,133.917 338.863,130.159 336.435 C 128.596 335.426,126.796 334.284,126.159 333.897 C 118.626 329.327,102.967 315.112,97.104 307.521 C 90.483 298.949,88.666 296.457,87.778 294.729 C 87.249 293.701,86.093 291.826,85.208 290.563 C 84.324 289.300,83.600 288.068,83.600 287.825 C 83.600 287.582,82.775 285.974,81.767 284.253 C 80.759 282.531,79.512 279.998,78.995 278.625 C 78.478 277.251,77.420 274.972,76.644 273.561 C 75.868 272.150,74.943 269.736,74.589 268.197 C 74.234 266.659,73.244 263.661,72.390 261.537 C 70.824 257.642,70.543 256.378,69.389 248.000 C 69.040 245.470,68.324 241.510,67.798 239.200 C 65.352 228.461,65.418 217.112,67.995 205.406 C 68.625 202.543,69.345 198.490,69.594 196.400 C 70.358 190.000,70.805 187.996,72.250 184.507 C 73.015 182.659,74.004 179.675,74.448 177.874 C 74.892 176.073,75.885 173.446,76.655 172.036 C 77.425 170.627,78.500 168.287,79.044 166.836 C 79.588 165.386,80.458 163.555,80.978 162.768 C 81.497 161.980,82.589 160.000,83.405 158.368 C 84.220 156.735,85.283 154.860,85.767 154.200 C 86.250 153.540,87.198 152.010,87.872 150.800 C 90.675 145.774,99.038 135.377,105.521 128.862 C 114.069 120.271,129.330 108.690,135.422 106.172 C 136.290 105.813,138.014 104.908,139.252 104.160 C 140.491 103.412,142.736 102.337,144.241 101.770 C 145.745 101.204,148.062 100.137,149.388 99.399 C 150.715 98.661,153.330 97.669,155.200 97.195 C 157.070 96.722,160.100 95.714,161.933 94.955 C 164.441 93.918,166.865 93.330,171.733 92.580 C 175.290 92.031,180.360 91.133,183.000 90.584 C 191.433 88.828,200.977 88.333,209.116 89.227 M201.000 103.052 C 192.519 105.124,184.626 112.858,169.213 134.200 C 160.874 145.747,156.332 150.890,146.228 160.223 C 135.644 169.999,130.400 179.603,130.400 189.211 C 130.400 198.087,133.614 203.273,148.335 218.146 C 165.040 235.025,169.085 237.494,180.200 237.603 C 183.348 237.634,186.608 238.075,187.064 238.531 C 188.197 239.664,179.126 249.226,163.798 263.055 C 148.773 276.611,128.590 301.681,126.186 309.773 C 122.987 320.541,128.871 324.785,147.000 324.784 C 160.630 324.783,164.258 323.001,169.765 313.606 C 172.496 308.946,179.707 300.538,193.637 285.772 C 204.627 274.123,204.973 273.958,208.885 278.499 C 227.666 300.302,231.232 304.868,235.034 311.982 C 237.404 316.417,244.352 322.510,248.582 323.863 C 251.238 324.713,269.089 325.129,272.502 324.420 C 277.172 323.451,278.873 321.294,279.124 316.025 C 279.398 310.260,278.161 307.793,270.344 298.520 C 264.944 292.113,262.401 288.720,260.513 285.400 C 249.249 265.600,242.120 257.894,232.200 254.792 C 227.701 253.385,226.640 251.977,228.279 249.589 C 229.763 247.427,241.179 235.313,249.754 226.800 C 273.648 203.081,274.916 198.531,262.442 181.248 C 253.212 168.460,245.265 163.596,233.616 163.604 C 227.344 163.608,212.045 162.913,207.451 162.415 C 201.976 161.822,201.983 161.422,207.584 154.400 C 209.603 151.870,211.988 148.540,212.886 147.000 C 216.799 140.286,217.335 139.257,218.405 136.408 C 219.027 134.753,220.182 131.939,220.972 130.153 C 225.746 119.367,222.875 107.714,214.500 103.887 C 212.635 103.034,203.407 102.463,201.000 103.052 M211.855 106.837 C 217.834 109.694,220.328 118.440,217.434 126.400 C 212.581 139.753,208.594 146.680,200.396 156.000 C 198.945 157.650,196.644 160.378,195.283 162.063 C 193.922 163.748,191.142 166.476,189.105 168.126 C 187.067 169.776,184.320 172.003,183.000 173.075 C 181.680 174.146,179.700 175.702,178.600 176.533 C 172.846 180.876,170.808 183.980,170.808 188.400 C 170.808 193.766,172.258 195.395,181.672 200.600 C 193.130 206.935,199.867 220.214,195.449 227.753 C 193.114 231.737,186.021 234.077,178.931 233.202 C 168.512 231.916,165.949 230.296,151.395 215.800 C 133.081 197.560,130.762 190.713,138.035 176.343 C 139.816 172.824,143.767 168.363,150.274 162.525 C 157.317 156.205,160.869 152.480,165.216 146.857 C 166.637 145.018,168.918 142.085,170.285 140.339 C 171.651 138.593,173.802 135.688,175.063 133.882 C 191.428 110.457,202.461 102.347,211.855 106.837 M216.800 167.651 C 218.670 167.872,224.610 168.202,230.000 168.383 C 246.273 168.930,249.728 170.925,260.821 186.186 C 269.517 198.149,267.804 203.907,250.752 220.043 C 236.652 233.384,222.597 248.115,221.187 251.028 C 219.278 254.971,220.941 256.857,227.812 258.538 C 239.451 261.387,242.920 264.787,256.431 286.591 C 260.066 292.457,261.564 294.467,266.872 300.602 C 277.339 312.700,278.627 317.585,272.199 320.800 C 269.602 322.099,257.315 322.273,252.845 321.074 C 246.198 319.291,241.000 314.789,237.471 307.760 C 235.088 303.012,229.625 295.765,220.617 285.400 C 217.747 282.099,214.193 277.846,212.718 275.949 C 205.925 267.216,204.767 267.451,193.076 279.935 C 176.053 298.113,169.987 305.117,167.369 309.618 C 162.068 318.729,158.065 321.493,149.588 321.892 C 136.734 322.498,128.144 318.966,128.977 313.416 C 130.090 305.993,151.587 279.626,168.847 264.515 C 173.896 260.094,192.198 241.737,198.771 234.500 C 201.018 232.025,203.010 230.000,203.197 230.000 C 203.580 230.000,217.537 215.194,220.948 211.167 C 226.570 204.532,225.996 198.657,219.400 195.311 C 206.668 188.853,197.075 179.602,197.022 173.731 C 196.966 167.452,202.021 165.898,216.800 167.651 M191.389 176.060 C 191.972 176.752,192.959 178.327,193.583 179.560 C 196.407 185.141,203.754 191.255,215.763 198.019 C 222.837 202.003,222.029 204.810,210.321 216.920 C 202.745 224.757,202.114 224.882,201.167 218.747 C 200.700 215.727,200.143 214.304,198.603 212.200 C 198.120 211.540,197.078 209.830,196.288 208.400 C 193.594 203.523,187.488 198.592,178.538 194.063 C 172.030 190.771,173.567 185.789,183.331 178.522 C 189.026 174.283,189.717 174.072,191.389 176.060 " stroke="none" fill="#000000" fill-rule="evenodd"></path></g></svg>