<svg id="svg" version="1.1" xmlns="http://www.w3.org/2000/svg" xmlns:xlink="http://www.w3.org/1999/xlink" width="400" height="400" viewBox="0, 0, 400,400"><g id="svgg"><path id="path0" d="M188.800 42.003 C 182.362 42.361,179.126 42.856,175.858 43.980 C 172.904 44.996,168.272 45.885,163.200 46.407 C 155.529 47.197,154.011 47.544,151.530 49.076 C 149.361 50.415,142.930 52.356,140.559 52.389 C 140.097 52.395,139.107 52.843,138.359 53.385 C 136.068 55.044,133.505 56.266,131.200 56.798 C 128.516 57.417,128.161 57.595,126.021 59.383 C 124.936 60.289,123.292 61.105,121.462 61.646 C 119.213 62.311,118.232 62.862,116.879 64.219 C 115.691 65.411,114.265 66.287,112.279 67.046 C 110.306 67.799,108.959 68.625,108.000 69.667 C 107.230 70.503,105.784 71.527,104.787 71.942 C 103.747 72.375,102.500 73.318,101.863 74.152 C 101.253 74.953,100.025 75.979,99.135 76.433 C 98.245 76.887,96.382 78.281,94.996 79.529 C 93.610 80.778,90.816 83.240,88.788 85.000 C 86.760 86.760,84.539 88.801,83.851 89.536 C 81.100 92.476,78.068 95.913,76.385 98.000 C 75.410 99.210,74.400 100.335,74.142 100.499 C 73.884 100.664,72.864 102.027,71.875 103.528 C 70.886 105.029,69.593 106.575,69.002 106.962 C 68.410 107.350,67.503 108.625,66.984 109.797 C 66.449 111.007,65.462 112.369,64.699 112.952 C 63.739 113.684,62.969 114.912,62.002 117.255 C 61.084 119.478,60.154 120.994,59.113 121.966 C 58.032 122.976,57.389 124.051,56.939 125.600 C 56.098 128.494,55.371 129.887,53.768 131.676 C 53.020 132.511,52.322 133.815,52.163 134.676 C 51.624 137.586,50.397 140.521,49.015 142.208 C 47.814 143.674,47.492 144.562,46.639 148.767 C 45.919 152.313,45.277 154.303,44.266 156.115 C 42.513 159.256,42.170 160.576,41.413 167.075 C 40.721 173.013,40.157 175.848,38.670 180.873 C 36.969 186.617,36.314 201.703,37.200 214.682 C 37.613 220.735,37.748 221.505,39.312 226.800 C 39.864 228.670,40.614 232.540,40.978 235.400 C 42.041 243.760,42.675 246.770,43.703 248.344 C 45.097 250.478,45.962 252.898,46.638 256.555 C 47.439 260.891,47.873 262.161,48.858 263.052 C 50.027 264.109,51.113 266.387,51.750 269.117 C 52.390 271.860,52.956 273.033,54.296 274.392 C 55.567 275.680,56.245 277.024,56.844 279.440 C 57.178 280.788,57.903 282.036,59.165 283.435 C 60.391 284.795,61.374 286.465,62.126 288.464 C 62.986 290.752,63.539 291.628,64.470 292.178 C 65.230 292.627,66.057 293.701,66.666 295.031 C 67.203 296.205,68.218 297.636,68.921 298.213 C 69.625 298.789,70.830 300.226,71.600 301.405 C 73.134 303.755,76.916 308.272,79.966 311.400 C 81.038 312.500,82.388 314.134,82.965 315.030 C 83.542 315.927,84.693 317.042,85.523 317.509 C 86.353 317.975,87.840 319.222,88.827 320.278 C 90.864 322.459,95.533 326.384,98.324 328.263 C 99.356 328.958,100.920 330.267,101.800 331.172 C 102.680 332.077,104.324 333.246,105.454 333.769 C 106.647 334.322,107.792 335.201,108.186 335.868 C 108.689 336.721,109.709 337.349,112.158 338.314 C 114.623 339.285,115.883 340.064,117.162 341.406 C 118.103 342.393,119.209 343.200,119.621 343.200 C 121.099 343.200,124.629 344.816,126.182 346.204 C 127.053 346.981,128.493 347.815,129.382 348.056 C 133.706 349.229,135.110 349.774,136.400 350.780 C 138.490 352.408,139.092 352.652,142.800 353.382 C 147.618 354.329,148.668 354.690,151.600 356.404 C 154.316 357.992,153.991 357.922,164.600 359.215 C 169.788 359.848,173.381 360.590,176.800 361.736 C 184.294 364.247,212.615 364.048,219.650 361.434 C 222.112 360.519,227.808 359.532,237.312 358.372 C 240.514 357.981,241.617 357.657,243.394 356.587 C 246.181 354.908,248.194 354.190,252.400 353.373 C 256.066 352.661,256.817 352.366,258.484 350.980 C 259.635 350.023,261.566 349.238,265.283 348.215 C 266.735 347.816,268.204 347.035,269.322 346.068 C 270.400 345.134,271.989 344.276,273.439 343.843 C 276.713 342.867,277.470 342.446,278.582 340.988 C 279.284 340.068,280.500 339.349,283.002 338.376 C 285.576 337.375,286.622 336.748,287.117 335.910 C 287.508 335.248,288.824 334.261,290.316 333.512 C 291.710 332.811,293.127 331.770,293.465 331.197 C 293.803 330.625,295.232 329.452,296.640 328.591 C 298.048 327.730,299.200 326.885,299.200 326.713 C 299.200 326.541,300.804 325.133,302.764 323.585 C 304.724 322.037,306.612 320.335,306.961 319.804 C 307.309 319.272,308.385 318.374,309.351 317.807 C 310.318 317.241,311.600 316.018,312.201 315.089 C 312.801 314.160,314.217 312.488,315.346 311.374 C 317.873 308.882,322.305 303.604,323.447 301.727 C 323.912 300.962,325.112 299.495,326.112 298.468 C 327.112 297.441,328.192 295.970,328.511 295.200 C 328.831 294.430,329.791 293.156,330.646 292.369 C 331.733 291.369,332.501 290.114,333.200 288.197 C 333.891 286.304,334.769 284.860,336.041 283.527 C 337.488 282.011,338.034 281.037,338.593 278.971 C 339.107 277.070,339.782 275.783,341.032 274.319 C 341.982 273.206,342.881 271.734,343.029 271.048 C 343.763 267.646,344.945 264.702,346.164 263.243 C 347.498 261.646,347.691 261.047,349.220 253.733 C 349.458 252.597,350.286 250.617,351.061 249.333 C 352.522 246.914,353.275 243.945,353.782 238.600 C 354.224 233.948,355.158 229.030,356.217 225.785 C 358.981 217.319,359.081 187.964,356.372 180.132 C 355.168 176.649,354.828 174.902,353.782 166.843 C 353.111 161.672,352.586 159.028,352.014 157.943 C 351.566 157.094,350.834 155.706,350.387 154.858 C 349.940 154.010,349.121 151.175,348.567 148.558 C 348.013 145.941,347.293 143.440,346.966 143.000 C 344.779 140.049,344.319 139.233,343.824 137.425 C 343.519 136.311,343.163 134.915,343.033 134.322 C 342.902 133.729,342.110 132.451,341.272 131.483 C 339.675 129.638,339.126 128.529,338.398 125.682 C 338.122 124.602,337.261 123.191,336.080 121.882 C 334.896 120.571,333.765 118.717,333.026 116.875 C 332.239 114.913,331.465 113.673,330.675 113.111 C 330.027 112.650,329.057 111.310,328.518 110.133 C 327.962 108.919,326.935 107.534,326.143 106.929 C 325.375 106.344,324.405 105.195,323.988 104.376 C 323.570 103.557,322.572 102.192,321.770 101.343 C 320.968 100.494,319.576 98.900,318.676 97.800 C 317.097 95.868,313.938 92.304,311.351 89.536 C 310.665 88.801,308.348 86.670,306.204 84.800 C 304.060 82.930,301.259 80.465,299.980 79.322 C 298.702 78.179,296.953 76.886,296.095 76.449 C 295.237 76.011,294.034 74.995,293.421 74.192 C 292.775 73.344,291.530 72.407,290.454 71.956 C 289.434 71.530,288.046 70.539,287.370 69.754 C 286.535 68.786,285.185 67.946,283.170 67.140 C 281.244 66.370,279.567 65.346,278.400 64.226 C 277.009 62.891,275.938 62.302,273.683 61.633 C 271.778 61.067,270.250 60.306,269.283 59.441 C 267.416 57.772,266.726 57.427,264.000 56.798 C 261.678 56.262,258.879 54.942,257.183 53.582 C 256.587 53.105,254.596 52.440,252.383 51.979 C 247.423 50.945,245.220 50.195,243.573 48.980 C 241.793 47.667,240.503 47.359,233.600 46.602 C 226.619 45.836,222.488 45.055,218.819 43.806 C 214.085 42.196,200.253 41.366,188.800 42.003 M214.256 50.021 C 221.888 50.472,226.488 51.221,228.780 52.389 C 231.088 53.564,234.312 54.386,239.083 55.016 C 244.262 55.699,245.083 55.962,247.800 57.809 C 249.243 58.790,250.824 59.389,253.475 59.961 C 257.568 60.844,259.372 61.626,259.994 62.789 C 260.276 63.315,261.708 63.969,264.399 64.800 C 267.362 65.714,268.828 66.411,270.105 67.515 C 271.083 68.359,273.001 69.413,274.551 69.957 C 276.565 70.665,277.772 71.410,279.173 72.811 C 280.293 73.931,281.605 74.825,282.376 74.995 C 283.094 75.152,284.397 75.997,285.271 76.871 C 286.145 77.745,287.972 79.111,289.330 79.906 C 290.689 80.700,292.700 82.188,293.800 83.212 C 294.900 84.236,296.397 85.417,297.128 85.837 C 297.858 86.257,298.821 87.191,299.269 87.914 C 299.717 88.637,301.023 89.830,302.173 90.565 C 303.433 91.372,304.464 92.389,304.771 93.129 C 305.054 93.813,306.080 94.878,307.084 95.531 C 308.077 96.177,309.276 97.394,309.748 98.235 C 310.220 99.077,311.302 100.238,312.152 100.816 C 313.003 101.393,314.089 102.512,314.565 103.301 C 315.042 104.091,316.245 105.606,317.238 106.668 C 318.232 107.731,319.712 109.739,320.527 111.130 C 321.343 112.522,322.545 114.111,323.200 114.661 C 323.867 115.223,324.699 116.549,325.095 117.683 C 325.538 118.952,326.433 120.310,327.502 121.334 C 328.749 122.527,329.537 123.825,330.445 126.182 C 331.201 128.141,332.185 129.885,332.961 130.640 C 333.902 131.554,334.529 132.832,335.347 135.497 C 336.067 137.847,336.809 139.443,337.466 140.057 C 338.938 141.431,339.484 142.688,340.402 146.810 C 341.287 150.782,341.619 151.599,343.044 153.312 C 344.204 154.707,344.663 156.309,345.422 161.600 C 346.140 166.603,346.480 167.940,347.996 171.727 C 351.866 181.392,351.608 224.654,347.621 234.611 C 346.773 236.728,346.092 239.546,345.548 243.182 C 344.747 248.543,343.833 251.435,342.445 252.995 C 341.540 254.013,340.969 255.562,340.379 258.600 C 339.770 261.742,339.063 263.395,337.632 265.025 C 336.902 265.857,336.066 267.652,335.412 269.799 C 334.687 272.174,333.950 273.698,333.031 274.720 C 332.298 275.534,331.113 277.611,330.398 279.335 C 329.556 281.362,328.554 282.991,327.563 283.944 C 326.719 284.754,325.750 286.207,325.410 287.172 C 325.069 288.137,324.026 289.753,323.092 290.764 C 322.158 291.774,320.681 293.831,319.808 295.336 C 318.936 296.841,317.736 298.418,317.142 298.841 C 316.548 299.264,315.508 300.510,314.831 301.611 C 314.154 302.711,313.015 303.961,312.300 304.389 C 311.585 304.817,310.539 305.939,309.975 306.883 C 309.411 307.827,308.187 309.113,307.254 309.740 C 306.322 310.367,305.126 311.566,304.597 312.405 C 304.068 313.243,302.898 314.343,301.998 314.849 C 301.097 315.356,299.983 316.381,299.521 317.127 C 299.060 317.874,297.734 319.092,296.575 319.833 C 295.416 320.575,294.091 321.711,293.629 322.359 C 293.168 323.006,291.578 324.208,290.095 325.028 C 288.613 325.849,286.585 327.273,285.589 328.193 C 284.593 329.113,282.950 330.182,281.938 330.569 C 280.926 330.955,279.711 331.794,279.239 332.432 C 278.324 333.671,276.539 334.709,273.118 335.993 C 271.953 336.430,270.490 337.330,269.868 337.992 C 269.033 338.880,267.705 339.517,264.825 340.412 C 262.217 341.222,260.596 341.968,259.957 342.651 C 258.565 344.142,257.320 344.682,253.138 345.613 C 250.481 346.203,248.821 346.835,247.400 347.796 C 245.076 349.368,243.641 349.789,237.833 350.604 C 235.033 350.997,232.317 351.696,229.889 352.646 C 224.007 354.950,221.715 355.191,203.200 355.457 C 179.023 355.804,171.733 355.231,164.749 352.434 C 162.871 351.682,160.047 350.981,157.405 350.610 C 151.557 349.789,150.127 349.370,147.800 347.796 C 146.379 346.835,144.719 346.203,142.062 345.613 C 137.868 344.680,136.636 344.143,135.225 342.632 C 134.566 341.927,133.001 341.203,130.407 340.402 C 127.660 339.554,126.248 338.885,125.449 338.051 C 124.830 337.405,122.737 336.225,120.746 335.399 C 118.245 334.363,116.893 333.549,116.280 332.712 C 115.796 332.051,114.410 331.072,113.200 330.536 C 111.990 330.000,110.280 328.873,109.400 328.033 C 108.520 327.192,106.630 325.833,105.200 325.012 C 103.770 324.191,102.092 322.907,101.471 322.159 C 100.849 321.411,99.531 320.324,98.540 319.744 C 97.550 319.164,96.303 317.997,95.770 317.153 C 95.237 316.308,94.080 315.249,93.200 314.800 C 92.306 314.344,91.157 313.282,90.597 312.395 C 90.045 311.521,88.879 310.355,88.005 309.803 C 87.118 309.243,86.056 308.094,85.600 307.200 C 85.137 306.293,84.080 305.155,83.158 304.574 C 82.264 304.009,81.233 302.975,80.866 302.276 C 80.500 301.576,79.352 300.145,78.315 299.094 C 77.278 298.044,75.778 296.063,74.981 294.692 C 74.185 293.322,72.849 291.480,72.013 290.600 C 71.177 289.720,70.271 288.304,70.000 287.453 C 69.729 286.602,68.664 284.975,67.634 283.837 C 66.434 282.513,65.419 280.840,64.811 279.185 C 64.289 277.763,63.207 275.876,62.406 274.991 C 61.357 273.830,60.647 272.408,59.862 269.890 C 59.183 267.712,58.326 265.888,57.585 265.044 C 56.138 263.396,55.432 261.751,54.821 258.600 C 54.229 255.554,53.682 254.112,52.532 252.573 C 51.178 250.759,50.501 248.503,49.806 243.490 C 49.076 238.226,49.083 238.254,47.558 234.504 C 45.255 228.842,45.005 225.696,45.014 202.600 C 45.024 179.203,45.209 177.023,47.738 170.555 C 48.647 168.231,49.322 165.622,49.601 163.355 C 50.291 157.745,51.066 154.975,52.550 152.818 C 53.478 151.469,54.124 149.847,54.582 147.720 C 55.587 143.044,55.866 142.348,57.535 140.328 C 58.632 139.000,59.331 137.549,59.993 135.223 C 60.708 132.712,61.258 131.625,62.412 130.435 C 63.234 129.588,64.132 128.199,64.408 127.348 C 65.260 124.717,66.675 122.256,68.093 120.938 C 68.840 120.244,69.674 118.929,69.948 118.015 C 70.222 117.102,71.117 115.690,71.938 114.877 C 72.758 114.065,74.193 112.101,75.125 110.512 C 76.058 108.924,77.401 107.182,78.111 106.641 C 78.820 106.100,79.937 104.737,80.593 103.613 C 81.249 102.489,82.364 101.228,83.071 100.811 C 83.778 100.394,84.819 99.320,85.385 98.424 C 85.950 97.529,87.175 96.245,88.106 95.572 C 89.038 94.899,90.118 93.732,90.507 92.978 C 90.912 92.194,91.864 91.278,92.733 90.834 C 93.569 90.408,95.110 89.056,96.157 87.830 C 97.205 86.603,98.292 85.600,98.573 85.600 C 98.854 85.600,100.157 84.565,101.468 83.300 C 102.778 82.035,104.830 80.477,106.026 79.838 C 107.221 79.200,108.922 77.936,109.805 77.030 C 110.716 76.096,112.101 75.175,113.005 74.903 C 113.947 74.619,115.295 73.703,116.298 72.666 C 117.573 71.345,118.763 70.629,121.087 69.781 C 122.995 69.085,124.586 68.208,125.242 67.489 C 126.007 66.652,127.446 65.951,130.375 64.989 C 133.290 64.032,134.881 63.259,135.983 62.263 C 137.207 61.157,138.167 60.734,140.661 60.203 C 145.139 59.249,146.278 58.851,147.514 57.811 C 149.301 56.308,151.443 55.629,156.463 54.976 C 161.456 54.326,163.063 53.911,167.022 52.249 C 172.566 49.920,194.781 48.873,214.256 50.021 M201.278 72.827 C 200.331 73.013,199.042 73.598,198.413 74.127 C 197.785 74.656,195.950 75.817,194.335 76.707 C 191.332 78.363,185.493 84.163,182.163 88.799 C 181.403 89.856,180.519 90.822,180.198 90.945 C 179.877 91.069,178.805 92.432,177.815 93.976 C 176.826 95.520,175.637 97.012,175.174 97.292 C 174.711 97.571,173.874 98.700,173.314 99.800 C 172.754 100.900,171.707 102.456,170.988 103.257 C 170.268 104.059,169.013 105.769,168.199 107.057 C 167.385 108.346,166.040 110.120,165.210 111.000 C 164.380 111.880,163.054 113.630,162.262 114.889 C 161.471 116.148,160.443 117.408,159.979 117.689 C 159.514 117.970,158.763 118.920,158.311 119.800 C 157.858 120.680,156.713 122.210,155.766 123.200 C 151.728 127.420,145.498 133.573,143.008 135.800 C 141.533 137.120,139.487 139.011,138.463 140.003 C 137.438 140.995,135.946 142.293,135.147 142.888 C 134.348 143.482,133.140 144.951,132.462 146.151 C 131.785 147.351,130.891 148.573,130.475 148.866 C 129.133 149.814,124.404 162.469,124.401 165.123 C 124.400 166.416,125.236 169.644,125.820 170.600 C 126.089 171.040,126.624 172.390,127.009 173.600 C 127.990 176.686,128.563 177.706,130.605 180.006 C 131.589 181.113,132.759 182.735,133.205 183.610 C 133.655 184.492,134.722 185.645,135.600 186.200 C 136.480 186.756,137.545 187.908,137.997 188.794 C 138.444 189.671,139.303 190.694,139.905 191.067 C 141.492 192.050,143.200 193.678,143.200 194.205 C 143.200 194.771,144.645 196.059,146.087 196.779 C 146.685 197.077,147.632 198.013,148.191 198.858 C 148.750 199.703,149.914 200.841,150.778 201.386 C 151.641 201.931,152.854 203.018,153.474 203.802 C 154.093 204.586,155.320 205.653,156.200 206.173 C 157.080 206.693,158.402 207.780,159.137 208.589 C 163.418 213.299,179.768 214.804,187.749 211.223 C 193.952 208.440,194.914 198.691,189.695 191.491 C 188.383 189.681,186.926 187.444,186.457 186.521 C 185.966 185.553,184.847 184.320,183.815 183.610 C 182.830 182.932,181.577 181.792,181.031 181.076 C 180.485 180.360,179.355 179.532,178.519 179.236 C 175.953 178.327,172.253 176.397,171.200 175.418 C 170.650 174.907,169.428 174.101,168.484 173.628 C 163.870 171.314,162.581 164.147,165.661 157.924 C 166.705 155.814,171.714 150.800,172.778 150.800 C 172.975 150.800,174.095 149.927,175.268 148.861 C 176.440 147.794,178.151 146.451,179.068 145.876 C 179.986 145.301,181.207 144.213,181.782 143.459 C 182.357 142.705,183.557 141.606,184.447 141.016 C 186.192 139.862,190.974 134.971,192.038 133.253 C 192.397 132.674,193.418 131.661,194.307 131.002 C 195.196 130.343,196.249 129.199,196.648 128.460 C 197.046 127.720,198.063 126.523,198.909 125.800 C 199.754 125.076,200.998 123.610,201.673 122.542 C 202.348 121.474,203.532 119.897,204.304 119.039 C 205.077 118.180,206.334 116.110,207.097 114.439 C 207.861 112.767,208.987 110.860,209.599 110.200 C 210.310 109.433,211.233 107.424,212.159 104.630 C 212.955 102.226,214.131 99.436,214.771 98.430 C 218.250 92.959,218.176 79.145,214.657 77.326 C 213.965 76.969,212.680 75.896,211.800 74.943 C 209.636 72.598,206.076 71.882,201.278 72.827 M198.000 142.746 C 191.938 146.555,195.167 155.862,204.534 161.582 C 206.330 162.679,208.224 164.032,208.742 164.588 C 209.260 165.144,210.452 165.939,211.391 166.355 C 212.330 166.770,213.832 167.773,214.730 168.584 C 215.627 169.395,217.581 170.573,219.072 171.202 C 226.119 174.175,228.348 181.651,223.848 187.217 C 221.139 190.569,218.062 194.034,213.207 199.200 C 210.416 202.170,206.528 206.312,204.566 208.404 C 200.265 212.992,200.025 213.239,187.863 225.701 C 182.548 231.147,177.555 236.277,176.766 237.101 C 174.524 239.444,172.306 241.641,171.045 242.768 C 170.410 243.336,168.859 244.790,167.600 246.000 C 166.341 247.210,163.621 249.633,161.555 251.384 C 154.512 257.355,142.327 270.026,138.200 275.670 C 137.540 276.573,136.172 278.141,135.160 279.156 C 134.148 280.170,132.858 281.817,132.293 282.815 C 131.728 283.813,130.776 284.892,130.177 285.212 C 129.575 285.534,128.776 286.522,128.392 287.420 C 128.009 288.313,126.775 290.150,125.650 291.501 C 124.525 292.853,122.960 295.318,122.172 296.978 C 121.384 298.639,120.364 300.260,119.905 300.581 C 117.390 302.343,117.886 307.504,120.659 308.419 C 121.477 308.689,122.949 309.420,123.931 310.042 C 127.485 312.296,129.046 312.583,137.800 312.592 C 147.499 312.602,148.022 312.501,151.244 310.002 C 152.650 308.912,154.295 307.642,154.900 307.179 C 155.505 306.717,156.000 306.097,156.000 305.802 C 156.000 305.506,156.875 304.305,157.944 303.132 C 159.013 301.960,160.026 300.550,160.195 300.000 C 160.803 298.022,162.105 295.853,163.771 294.043 C 164.704 293.029,166.038 291.357,166.735 290.327 C 167.432 289.296,168.508 288.093,169.127 287.652 C 169.745 287.212,170.744 286.072,171.346 285.119 C 171.949 284.167,173.073 282.954,173.846 282.425 C 174.619 281.895,175.533 280.916,175.878 280.248 C 176.224 279.581,177.517 278.016,178.753 276.771 C 181.385 274.119,183.336 272.050,192.909 261.756 L 200.018 254.112 202.450 253.858 C 205.938 253.493,208.751 255.875,214.006 263.642 C 215.068 265.212,217.583 268.127,221.145 271.917 C 222.325 273.173,223.817 274.962,224.460 275.894 C 225.104 276.826,225.977 277.773,226.400 278.000 C 226.823 278.227,227.750 279.264,228.459 280.306 C 229.167 281.348,230.517 283.089,231.458 284.175 C 232.399 285.262,233.743 287.242,234.446 288.575 C 235.148 289.909,236.480 291.820,237.405 292.822 C 238.330 293.825,239.314 295.355,239.592 296.222 C 240.196 298.110,241.300 300.030,243.027 302.200 C 243.727 303.080,244.583 304.358,244.929 305.040 C 245.984 307.118,254.979 311.815,258.968 312.370 C 262.266 312.829,274.800 312.894,276.298 312.460 C 281.920 310.832,283.807 304.794,279.995 300.629 C 279.175 299.733,278.114 298.229,277.637 297.287 C 276.831 295.693,275.619 294.280,270.994 289.541 C 269.997 288.519,268.716 286.998,268.148 286.161 C 267.579 285.324,266.254 283.640,265.202 282.419 C 264.150 281.199,262.800 279.210,262.203 278.000 C 261.605 276.790,260.586 275.243,259.939 274.561 C 259.292 273.880,258.219 272.175,257.555 270.771 C 256.892 269.368,255.710 267.440,254.929 266.487 C 254.148 265.535,253.011 263.730,252.403 262.477 C 251.794 261.225,250.888 259.840,250.390 259.400 C 249.891 258.960,248.849 257.610,248.074 256.400 C 246.401 253.786,242.163 249.508,240.315 248.566 C 239.592 248.198,238.190 247.312,237.200 246.597 C 235.100 245.081,231.611 243.978,225.203 242.806 C 219.976 241.849,219.015 241.375,218.655 239.577 C 218.057 236.583,218.330 235.260,219.914 233.491 C 220.747 232.561,221.892 231.170,222.459 230.400 C 223.026 229.630,225.375 227.104,227.680 224.786 C 229.984 222.468,232.202 220.064,232.608 219.445 C 233.014 218.825,234.032 217.885,234.870 217.356 C 235.708 216.827,236.846 215.677,237.399 214.801 C 237.952 213.925,239.124 212.732,240.003 212.151 C 240.882 211.569,241.977 210.485,242.436 209.741 C 242.896 208.997,244.057 207.849,245.017 207.188 C 245.977 206.528,247.086 205.431,247.481 204.750 C 247.876 204.069,249.149 202.901,250.309 202.155 C 251.469 201.409,252.625 200.343,252.879 199.786 C 253.133 199.230,254.205 198.153,255.262 197.393 C 256.319 196.634,257.583 195.404,258.071 194.660 C 258.559 193.916,259.572 192.886,260.324 192.371 C 261.075 191.857,262.284 190.553,263.010 189.474 C 263.737 188.396,264.868 187.186,265.525 186.787 C 266.359 186.280,266.983 185.357,267.590 183.735 C 268.068 182.456,268.632 181.202,268.842 180.949 C 269.336 180.354,271.200 175.604,271.200 174.941 C 271.200 174.662,270.300 172.563,269.200 170.277 C 268.100 167.991,267.200 165.915,267.200 165.665 C 267.200 165.414,266.306 164.221,265.214 163.015 C 264.121 161.809,262.879 160.142,262.454 159.311 C 260.951 156.374,254.220 149.435,251.200 147.709 C 250.210 147.143,248.500 146.087,247.400 145.364 C 244.729 143.606,242.143 143.200,233.611 143.200 C 229.657 143.200,222.893 142.851,218.185 142.404 C 205.611 141.210,200.301 141.300,198.000 142.746 " stroke="none" fill="#e6e6e6" fill-rule="evenodd"></path><path id="path1" d="M149.600 0.959 C 149.600 1.912,149.565 1.920,144.100 2.179 C 141.075 2.322,137.701 2.567,136.603 2.723 L 134.606 3.006 134.282 5.045 L 133.958 7.083 130.317 7.342 C 128.315 7.484,125.456 7.600,123.965 7.600 C 120.200 7.600,119.202 8.037,119.194 9.690 C 119.184 11.840,118.874 12.008,114.223 12.380 C 109.333 12.772,109.186 12.854,108.903 15.365 C 108.789 16.374,108.674 17.203,108.648 17.207 C 108.622 17.210,106.545 17.383,104.033 17.591 C 99.046 18.003,98.816 18.131,98.806 20.486 C 98.798 22.443,98.065 22.800,94.052 22.800 C 89.741 22.800,88.800 23.187,88.800 24.957 C 88.800 27.112,88.465 27.600,86.983 27.600 C 84.453 27.600,83.733 28.141,83.499 30.218 C 83.231 32.594,83.135 32.645,78.255 32.991 C 73.926 33.297,73.616 33.463,73.606 35.467 C 73.596 37.615,73.270 37.999,71.457 38.006 C 69.170 38.015,68.677 38.446,68.421 40.668 L 68.200 42.591 66.026 42.903 C 63.365 43.285,63.504 43.140,63.287 45.755 L 63.109 47.909 60.955 48.087 C 58.333 48.305,58.330 48.307,58.095 50.753 L 57.906 52.723 55.653 53.062 L 53.400 53.400 53.062 55.653 L 52.723 57.906 50.753 58.095 C 48.307 58.330,48.305 58.333,48.087 60.955 L 47.909 63.109 45.755 63.287 C 43.140 63.504,43.285 63.365,42.903 66.026 L 42.591 68.200 40.668 68.421 C 38.446 68.677,38.015 69.170,38.006 71.457 C 37.999 73.270,37.615 73.596,35.467 73.606 C 33.497 73.616,33.314 73.944,33.019 78.000 C 32.638 83.236,32.688 83.134,30.367 83.442 C 28.061 83.748,28.074 83.734,27.735 86.267 C 27.436 88.505,27.143 88.786,25.090 88.794 C 23.171 88.802,22.800 89.653,22.800 94.052 C 22.800 98.065,22.443 98.798,20.486 98.806 C 18.131 98.816,18.003 99.046,17.591 104.033 C 17.383 106.545,17.210 108.622,17.207 108.648 C 17.203 108.674,16.374 108.789,15.365 108.903 C 12.854 109.186,12.772 109.333,12.380 114.223 C 12.008 118.874,11.840 119.184,9.690 119.194 C 8.037 119.202,7.600 120.200,7.600 123.965 C 7.600 125.456,7.484 128.315,7.342 130.317 L 7.083 133.958 5.045 134.282 L 3.006 134.606 2.723 136.603 C 2.567 137.701,2.322 141.075,2.179 144.100 C 1.920 149.565,1.912 149.600,0.959 149.600 L 0.000 149.600 0.000 200.200 L 0.000 250.800 1.000 250.800 C 1.908 250.800,2.001 250.957,2.014 252.500 C 2.102 263.115,2.781 265.724,5.579 266.196 L 7.084 266.451 7.342 270.087 C 7.484 272.087,7.600 274.854,7.600 276.235 C 7.600 279.867,7.983 280.600,10.169 281.150 C 11.176 281.404,12.006 281.744,12.014 281.906 C 12.396 289.784,12.862 291.009,15.644 291.453 C 17.266 291.713,17.586 292.533,17.596 296.450 C 17.605 300.460,18.397 301.600,21.172 301.600 C 22.557 301.600,22.787 302.263,22.795 306.274 C 22.803 310.470,23.144 311.112,25.538 311.429 L 27.507 311.691 27.701 313.713 C 27.929 316.079,28.663 316.800,30.845 316.800 C 32.578 316.800,32.603 316.864,33.028 322.477 C 33.316 326.286,33.771 326.800,36.860 326.800 C 37.945 326.800,38.000 326.888,38.000 328.600 C 38.000 330.946,38.992 332.000,41.200 332.000 C 42.737 332.000,42.800 332.051,42.805 333.300 C 42.818 336.186,43.796 337.200,46.568 337.200 C 47.876 337.200,47.902 337.235,48.094 339.243 C 48.313 341.518,48.658 341.864,51.068 342.229 C 52.716 342.478,52.739 342.505,53.006 344.447 C 53.317 346.701,53.926 347.200,56.374 347.200 L 58.000 347.200 58.006 348.900 C 58.015 351.417,59.059 352.400,61.723 352.400 C 63.082 352.400,63.101 352.424,63.291 354.409 C 63.526 356.849,63.444 356.763,66.070 357.344 L 68.200 357.815 68.323 359.505 C 68.461 361.412,69.018 361.875,71.719 362.333 C 73.217 362.587,73.412 362.747,73.510 363.809 C 73.769 366.620,73.830 366.688,76.530 367.158 C 77.925 367.401,79.771 367.603,80.633 367.606 C 82.724 367.614,83.184 367.975,83.470 369.832 C 83.798 371.966,84.109 372.258,86.367 372.558 C 88.445 372.834,88.800 373.225,88.800 375.243 C 88.800 376.683,89.660 377.080,93.496 377.409 C 98.839 377.867,98.799 377.851,98.806 379.518 C 98.816 382.004,100.003 382.796,103.726 382.804 C 107.987 382.813,108.680 383.093,108.923 384.900 C 109.248 387.327,109.698 387.565,114.521 387.860 C 119.192 388.146,118.976 388.012,119.288 390.800 C 119.434 392.106,121.868 392.670,128.881 393.023 L 133.963 393.278 134.228 395.050 C 134.611 397.602,137.331 398.264,147.900 398.381 C 149.327 398.397,149.600 398.528,149.600 399.200 C 149.600 399.996,149.867 400.000,200.200 400.000 C 250.533 400.000,250.800 399.996,250.800 399.200 C 250.800 398.516,251.075 398.396,252.700 398.374 C 263.008 398.235,265.741 397.515,266.197 394.816 C 266.458 393.275,266.538 393.199,267.935 393.188 C 276.443 393.117,280.641 392.252,281.032 390.488 C 281.605 387.913,281.496 388.002,284.127 387.976 C 289.838 387.921,291.000 387.402,291.451 384.700 C 291.589 383.875,291.814 383.191,291.951 383.181 C 301.153 382.462,301.600 382.287,301.600 379.402 C 301.600 377.925,302.202 377.615,305.080 377.605 C 309.759 377.590,311.600 376.517,311.600 373.803 C 311.600 372.956,311.831 372.829,313.811 372.581 C 316.282 372.273,316.800 371.729,316.800 369.444 C 316.800 367.880,316.743 367.903,321.783 367.408 C 326.014 366.992,326.800 366.400,326.800 363.633 C 326.800 362.584,326.934 362.489,328.684 362.292 C 330.914 362.040,332.000 360.958,332.000 358.986 C 332.000 357.698,332.058 357.652,334.089 357.328 C 336.417 356.958,337.183 356.062,337.194 353.700 C 337.200 352.464,337.274 352.400,338.711 352.400 C 340.961 352.400,341.875 351.562,342.199 349.204 L 342.475 347.200 344.176 347.200 C 346.331 347.200,347.200 346.311,347.200 344.106 L 347.200 342.475 349.204 342.199 C 351.548 341.877,352.400 340.961,352.400 338.763 C 352.400 337.331,352.433 337.300,354.200 337.101 C 356.575 336.833,357.078 336.344,357.403 333.980 C 357.666 332.062,357.717 332.000,358.993 332.000 C 360.958 332.000,362.041 330.912,362.292 328.684 C 362.489 326.934,362.584 326.800,363.633 326.800 C 366.400 326.800,366.992 326.014,367.408 321.783 C 367.903 316.743,367.880 316.800,369.444 316.800 C 371.729 316.800,372.273 316.282,372.581 313.811 C 372.829 311.831,372.956 311.600,373.803 311.600 C 376.517 311.600,377.590 309.759,377.605 305.080 C 377.615 302.202,377.925 301.600,379.402 301.600 C 382.287 301.600,382.462 301.153,383.181 291.951 C 383.191 291.814,383.875 291.589,384.700 291.451 C 387.404 290.999,387.921 289.839,387.976 284.108 C 387.999 281.722,388.047 281.605,389.100 281.370 C 391.305 280.880,391.609 280.731,392.035 279.935 C 392.426 279.203,393.157 271.599,393.188 267.935 C 393.199 266.538,393.275 266.458,394.816 266.197 C 397.515 265.741,398.235 263.008,398.374 252.700 C 398.396 251.075,398.516 250.800,399.200 250.800 C 399.996 250.800,400.000 250.533,400.000 200.200 C 400.000 149.867,399.996 149.600,399.200 149.600 C 398.528 149.600,398.397 149.327,398.381 147.900 C 398.264 137.331,397.602 134.611,395.050 134.228 L 393.278 133.963 393.023 128.881 C 392.670 121.868,392.106 119.434,390.800 119.288 C 388.012 118.976,388.146 119.192,387.860 114.521 C 387.565 109.698,387.327 109.248,384.900 108.923 C 383.093 108.680,382.813 107.987,382.804 103.726 C 382.796 100.003,382.004 98.816,379.518 98.806 C 377.851 98.799,377.867 98.839,377.409 93.496 C 377.080 89.660,376.683 88.800,375.243 88.800 C 373.225 88.800,372.834 88.445,372.558 86.367 C 372.258 84.109,371.966 83.798,369.832 83.470 C 367.975 83.184,367.614 82.724,367.606 80.633 C 367.603 79.771,367.401 77.925,367.158 76.530 C 366.688 73.830,366.620 73.769,363.809 73.510 C 362.747 73.412,362.587 73.217,362.333 71.719 C 361.875 69.018,361.412 68.461,359.505 68.323 L 357.815 68.200 357.344 66.070 C 356.763 63.444,356.849 63.526,354.409 63.291 C 352.424 63.101,352.400 63.082,352.400 61.723 C 352.400 59.059,351.417 58.015,348.900 58.006 L 347.200 58.000 347.200 56.374 C 347.200 53.926,346.701 53.317,344.447 53.006 C 342.505 52.739,342.478 52.716,342.229 51.068 C 341.864 48.658,341.518 48.313,339.243 48.094 C 337.235 47.902,337.200 47.876,337.200 46.568 C 337.200 43.813,336.182 42.818,333.352 42.805 C 332.163 42.800,332.094 42.711,331.893 40.924 C 331.638 38.662,330.875 38.000,328.524 38.000 C 326.895 38.000,326.800 37.937,326.800 36.860 C 326.800 33.771,326.286 33.316,322.477 33.028 C 316.864 32.603,316.800 32.578,316.800 30.845 C 316.800 28.663,316.079 27.929,313.713 27.701 L 311.691 27.507 311.429 25.538 C 311.112 23.144,310.470 22.803,306.274 22.795 C 302.263 22.787,301.600 22.557,301.600 21.172 C 301.600 18.397,300.460 17.605,296.450 17.596 C 292.533 17.586,291.713 17.266,291.453 15.644 C 291.009 12.862,289.784 12.396,281.906 12.014 C 281.744 12.006,281.404 11.176,281.150 10.169 C 280.600 7.983,279.867 7.600,276.235 7.600 C 274.854 7.600,272.087 7.484,270.087 7.342 L 266.451 7.084 266.196 5.579 C 265.724 2.781,263.115 2.102,252.500 2.014 C 250.957 2.001,250.800 1.908,250.800 1.000 L 250.800 0.000 200.200 0.000 L 149.600 0.000 149.600 0.959 M222.050 40.541 C 224.387 40.875,227.627 41.617,229.250 42.190 C 233.517 43.699,235.982 44.294,241.537 45.154 C 245.910 45.831,246.712 46.082,248.558 47.353 C 250.184 48.473,251.639 49.014,255.184 49.814 C 260.176 50.941,260.792 51.189,262.702 52.848 C 263.418 53.470,265.038 54.264,266.302 54.612 C 269.739 55.560,271.536 56.419,273.540 58.075 C 274.534 58.897,275.899 59.688,276.574 59.833 C 278.398 60.227,280.458 61.377,281.723 62.709 C 282.340 63.359,284.113 64.402,285.663 65.025 C 287.614 65.811,288.798 66.575,289.510 67.508 C 290.075 68.250,291.452 69.316,292.569 69.878 C 293.686 70.440,295.410 71.644,296.400 72.554 C 297.390 73.464,299.200 74.808,300.422 75.541 C 301.644 76.274,302.966 77.352,303.359 77.937 C 303.753 78.522,304.719 79.450,305.506 80.000 C 306.834 80.928,310.187 83.995,313.290 87.119 C 317.515 91.372,318.641 92.597,319.759 94.161 C 320.442 95.115,321.567 96.369,322.259 96.949 C 322.951 97.528,324.107 98.947,324.826 100.101 C 325.546 101.255,326.906 103.010,327.849 104.000 C 328.791 104.990,329.938 106.651,330.396 107.691 C 330.854 108.731,331.831 110.040,332.566 110.601 C 333.413 111.247,334.349 112.621,335.125 114.356 C 335.798 115.861,337.077 117.934,337.968 118.963 C 338.980 120.132,339.831 121.670,340.235 123.062 C 340.603 124.326,341.446 125.918,342.187 126.745 C 343.821 128.568,344.465 129.856,345.544 133.462 C 346.082 135.262,346.920 136.946,347.800 138.000 C 349.170 139.639,349.657 140.960,350.948 146.523 C 351.295 148.021,352.209 150.271,352.978 151.523 C 354.430 153.887,354.688 154.861,355.807 162.200 C 356.212 164.857,356.924 167.630,357.605 169.200 C 360.274 175.355,361.297 191.844,360.442 214.951 C 359.918 229.112,359.714 230.703,357.776 235.662 C 356.821 238.105,356.120 240.927,355.575 244.523 C 354.628 250.777,354.256 252.056,352.739 254.276 C 351.982 255.385,351.249 257.416,350.575 260.276 C 349.600 264.409,348.344 267.284,347.044 268.364 C 346.434 268.869,346.175 269.553,345.024 273.683 C 344.622 275.124,343.827 276.614,342.868 277.722 C 342.032 278.688,341.120 280.091,340.843 280.839 C 339.753 283.776,338.802 285.570,337.619 286.917 C 336.940 287.690,335.849 289.504,335.195 290.948 C 334.478 292.527,333.509 293.937,332.761 294.486 C 332.077 294.989,331.014 296.390,330.399 297.600 C 329.784 298.810,328.794 300.250,328.200 300.800 C 327.606 301.350,326.304 303.060,325.307 304.600 C 324.310 306.140,322.573 308.355,321.447 309.522 C 320.321 310.690,318.494 312.580,317.386 313.722 C 316.278 314.865,314.869 316.482,314.254 317.315 C 313.639 318.148,312.452 319.262,311.617 319.790 C 310.781 320.317,309.697 321.396,309.208 322.187 C 308.719 322.978,307.627 323.978,306.781 324.410 C 305.934 324.842,304.665 325.913,303.960 326.790 C 303.254 327.668,301.490 329.145,300.039 330.073 C 298.587 331.002,296.580 332.509,295.578 333.424 C 294.575 334.338,293.127 335.294,292.359 335.548 C 291.577 335.806,290.338 336.754,289.544 337.704 C 288.588 338.847,287.481 339.631,286.149 340.109 C 285.061 340.499,283.188 341.626,281.986 342.612 C 280.784 343.599,278.556 344.881,277.035 345.463 C 275.514 346.044,273.624 347.095,272.835 347.799 C 271.421 349.060,269.377 349.974,266.158 350.786 C 265.254 351.014,263.689 351.831,262.680 352.601 C 260.522 354.249,259.653 354.611,256.073 355.358 C 251.564 356.298,250.165 356.763,249.163 357.652 C 247.440 359.181,245.090 359.937,240.000 360.596 C 233.881 361.389,233.524 361.469,230.884 362.654 C 221.730 366.762,175.415 366.992,165.384 362.979 C 161.650 361.485,160.835 361.292,155.240 360.578 C 150.200 359.934,148.186 359.276,145.761 357.480 C 144.981 356.902,142.717 356.148,139.651 355.444 C 135.465 354.484,134.504 354.110,132.828 352.784 C 131.553 351.777,130.002 351.015,128.356 350.589 C 125.324 349.803,123.881 349.093,121.921 347.421 C 121.108 346.727,119.476 345.855,118.295 345.482 C 117.113 345.110,115.079 343.971,113.773 342.950 C 112.468 341.930,110.298 340.596,108.950 339.987 C 107.423 339.296,106.093 338.345,105.419 337.460 C 104.807 336.659,103.707 335.833,102.890 335.564 C 102.095 335.301,100.625 334.329,99.622 333.404 C 98.620 332.478,96.720 331.041,95.400 330.211 C 94.080 329.381,92.057 327.779,90.904 326.651 C 89.751 325.523,87.681 323.564,86.304 322.298 C 82.989 319.249,80.883 317.144,78.003 314.000 C 76.694 312.570,74.694 310.422,73.559 309.227 C 72.425 308.032,70.867 306.052,70.098 304.827 C 69.328 303.602,68.010 301.880,67.169 301.000 C 66.327 300.120,65.277 298.581,64.836 297.581 C 64.393 296.575,63.317 295.185,62.431 294.473 C 61.349 293.604,60.663 292.634,60.321 291.492 C 60.043 290.561,58.932 288.633,57.852 287.206 C 56.773 285.779,55.395 283.396,54.790 281.911 C 54.186 280.425,53.153 278.596,52.495 277.847 C 51.297 276.483,50.392 274.443,49.613 271.354 C 49.385 270.448,48.642 269.008,47.961 268.154 C 46.198 265.939,46.095 265.692,44.797 260.587 C 44.042 257.617,43.215 255.381,42.471 254.291 C 40.916 252.015,40.551 250.738,39.607 244.278 C 39.040 240.400,38.440 237.910,37.590 235.912 C 33.294 225.816,33.277 179.450,37.566 169.678 C 38.515 167.514,39.018 165.416,39.618 161.106 C 40.527 154.576,40.757 153.761,42.421 151.168 C 43.728 149.130,44.110 148.051,44.977 143.944 C 45.609 140.956,46.702 138.573,47.967 137.430 C 48.435 137.006,49.097 135.656,49.437 134.430 C 50.479 130.675,51.192 129.125,52.807 127.096 C 53.660 126.024,54.634 124.199,54.971 123.039 C 55.347 121.747,56.212 120.218,57.203 119.092 C 58.093 118.080,59.434 115.909,60.183 114.266 C 61.144 112.155,61.905 111.065,62.772 110.553 C 63.559 110.088,64.246 109.182,64.686 108.029 C 65.064 107.040,66.022 105.594,66.814 104.815 C 67.607 104.037,69.087 102.106,70.103 100.525 C 71.120 98.944,72.383 97.368,72.910 97.022 C 73.437 96.677,74.472 95.540,75.209 94.497 C 75.945 93.454,77.550 91.578,78.774 90.329 C 85.706 83.258,88.263 80.800,88.689 80.800 C 88.902 80.800,89.959 79.883,91.038 78.761 C 92.117 77.640,94.252 75.908,95.781 74.912 C 97.311 73.916,98.904 72.667,99.322 72.136 C 99.740 71.605,101.139 70.636,102.432 69.984 C 103.726 69.331,105.098 68.317,105.482 67.731 C 105.902 67.090,107.382 66.112,109.190 65.281 C 110.846 64.520,112.930 63.228,113.823 62.411 C 114.797 61.520,116.448 60.587,117.951 60.079 C 119.329 59.614,121.094 58.674,121.873 57.990 C 123.538 56.527,125.732 55.469,128.862 54.616 C 130.192 54.254,131.812 53.425,132.791 52.607 C 134.521 51.162,135.023 50.979,141.000 49.602 C 143.250 49.084,145.200 48.355,146.200 47.658 C 148.566 46.009,149.680 45.667,155.400 44.835 C 158.260 44.419,161.410 43.773,162.400 43.400 C 168.086 41.257,172.620 40.399,181.200 39.841 C 187.367 39.440,218.011 39.966,222.050 40.541 M184.200 52.424 C 181.780 52.626,178.540 53.165,177.000 53.622 C 171.611 55.223,168.328 55.953,164.479 56.408 C 158.564 57.106,154.992 57.946,153.434 59.002 C 151.720 60.166,149.384 60.986,146.082 61.585 C 142.482 62.238,140.547 63.012,138.815 64.492 C 137.773 65.382,136.094 66.161,133.557 66.930 C 130.909 67.734,129.406 68.443,128.367 69.382 C 127.563 70.109,125.883 71.086,124.634 71.553 C 121.258 72.816,119.533 73.786,118.235 75.153 C 117.595 75.827,116.205 76.666,115.146 77.018 C 113.813 77.461,112.836 78.145,111.964 79.246 C 111.272 80.119,109.816 81.285,108.729 81.836 C 107.641 82.387,105.719 83.787,104.456 84.948 C 103.194 86.109,101.408 87.482,100.488 87.999 C 99.567 88.516,98.382 89.592,97.855 90.389 C 97.327 91.186,96.096 92.262,95.118 92.781 C 94.036 93.355,93.038 94.283,92.570 95.150 C 92.146 95.935,91.031 97.091,90.092 97.720 C 89.152 98.349,88.024 99.570,87.584 100.432 C 87.144 101.295,86.092 102.437,85.247 102.971 C 84.333 103.547,83.222 104.805,82.508 106.070 C 81.847 107.242,80.588 108.920,79.710 109.800 C 78.832 110.680,77.533 112.432,76.822 113.694 C 76.112 114.956,74.851 116.526,74.020 117.184 C 72.956 118.027,72.359 118.917,72.002 120.194 C 71.722 121.192,70.824 122.771,70.006 123.704 C 68.337 125.606,67.585 126.942,66.399 130.110 C 65.948 131.316,65.002 132.816,64.274 133.478 C 63.257 134.404,62.719 135.482,61.880 138.279 C 61.284 140.263,60.348 142.497,59.800 143.243 C 58.249 145.354,57.218 147.748,56.770 150.280 C 56.176 153.635,55.228 156.425,54.216 157.800 C 52.881 159.614,52.469 161.179,51.594 167.765 C 50.506 175.956,50.116 177.981,48.983 181.330 C 46.062 189.959,46.176 215.918,49.173 224.769 C 49.837 226.730,50.613 230.343,50.983 233.200 C 52.257 243.023,52.745 245.190,54.218 247.576 C 55.168 249.115,55.844 250.978,56.406 253.602 C 57.430 258.379,57.822 259.421,59.334 261.372 C 60.022 262.258,61.125 264.687,61.866 266.945 C 62.805 269.803,63.562 271.353,64.519 272.373 C 65.255 273.158,66.367 275.102,66.990 276.693 C 67.612 278.284,68.481 279.904,68.921 280.293 C 70.090 281.327,72.000 284.437,72.000 285.308 C 72.000 285.721,72.951 287.081,74.114 288.330 C 75.276 289.578,76.491 291.127,76.814 291.772 C 77.136 292.416,78.238 293.863,79.263 294.988 C 80.288 296.112,81.782 298.150,82.582 299.516 C 83.383 300.882,84.203 302.000,84.405 302.000 C 85.081 302.000,87.496 304.384,87.963 305.512 C 88.217 306.125,89.125 307.059,89.980 307.587 C 90.835 308.116,92.016 309.310,92.604 310.241 C 93.193 311.172,94.209 312.155,94.863 312.426 C 95.517 312.697,96.805 313.811,97.724 314.901 C 98.644 315.992,100.027 317.213,100.798 317.616 C 101.569 318.018,103.344 319.356,104.742 320.589 C 106.141 321.821,108.121 323.264,109.142 323.794 C 110.164 324.325,111.567 325.454,112.259 326.304 C 113.075 327.305,114.098 328.023,115.166 328.343 C 116.073 328.614,117.680 329.606,118.739 330.546 C 119.913 331.588,121.919 332.761,123.880 333.552 C 125.674 334.275,127.602 335.376,128.239 336.041 C 129.067 336.904,130.451 337.565,133.263 338.439 C 135.765 339.216,137.741 340.117,138.825 340.975 C 140.485 342.289,142.326 342.946,147.800 344.181 C 149.340 344.528,151.462 345.346,152.515 345.999 C 154.912 347.484,157.559 348.154,164.363 348.998 C 167.313 349.364,171.183 350.111,172.963 350.658 C 178.405 352.330,181.226 352.756,189.579 353.170 C 201.769 353.773,216.224 352.920,219.910 351.380 C 222.358 350.357,225.611 349.672,232.030 348.827 C 238.884 347.925,240.169 347.580,242.739 345.952 C 243.695 345.346,245.855 344.548,247.539 344.178 C 252.885 343.006,254.848 342.297,256.445 340.962 C 257.484 340.095,259.304 339.257,261.910 338.447 C 264.778 337.556,266.129 336.909,266.983 336.018 C 267.623 335.349,269.119 334.439,270.306 333.995 C 273.451 332.818,274.796 332.061,276.676 330.412 C 277.598 329.603,279.078 328.724,279.964 328.458 C 281.012 328.144,282.034 327.413,282.888 326.367 C 283.610 325.483,285.100 324.292,286.200 323.722 C 287.300 323.152,289.280 321.723,290.600 320.546 C 291.920 319.370,293.720 318.018,294.600 317.543 C 295.480 317.068,296.742 315.941,297.405 315.039 C 298.068 314.138,299.302 313.061,300.147 312.647 C 301.083 312.188,302.089 311.223,302.721 310.176 C 303.292 309.231,304.456 308.066,305.308 307.587 C 306.160 307.108,306.961 306.420,307.088 306.058 C 307.531 304.792,309.251 302.794,310.417 302.191 C 311.063 301.857,311.977 300.822,312.447 299.892 C 312.917 298.961,314.254 297.110,315.417 295.777 C 316.581 294.444,317.927 292.596,318.410 291.671 C 318.892 290.745,319.998 289.380,320.866 288.636 C 321.890 287.760,322.729 286.532,323.253 285.143 C 323.697 283.964,324.795 282.125,325.693 281.054 C 326.590 279.984,327.846 277.824,328.484 276.254 C 329.122 274.685,330.179 272.846,330.833 272.170 C 331.641 271.334,332.448 269.641,333.351 266.890 C 334.206 264.288,335.115 262.347,335.896 261.457 C 337.241 259.925,337.997 257.857,339.037 252.862 C 339.484 250.715,340.138 248.930,340.869 247.862 C 342.451 245.548,343.037 243.231,344.015 235.404 C 344.570 230.966,345.276 227.323,346.050 224.908 C 348.013 218.780,348.792 206.421,348.025 193.600 C 347.560 185.841,347.500 185.457,345.888 180.000 C 345.336 178.130,344.585 174.260,344.219 171.400 C 343.090 162.566,342.504 159.959,341.252 158.200 C 339.930 156.342,339.433 154.934,338.638 150.800 C 337.981 147.384,337.141 145.181,336.197 144.397 C 335.239 143.602,334.435 141.871,333.213 137.975 C 332.418 135.439,331.753 134.121,330.761 133.112 C 329.962 132.300,328.992 130.619,328.411 129.037 C 327.844 127.491,326.709 125.508,325.746 124.381 C 324.824 123.300,323.771 121.518,323.406 120.419 C 322.939 119.011,322.275 118.051,321.154 117.164 C 320.281 116.472,319.099 114.982,318.529 113.853 C 317.958 112.724,316.522 110.751,315.338 109.469 C 314.154 108.187,312.824 106.432,312.384 105.569 C 311.944 104.707,310.899 103.548,310.062 102.993 C 309.224 102.439,308.140 101.276,307.652 100.408 C 307.165 99.540,306.011 98.323,305.089 97.704 C 304.168 97.085,303.013 95.863,302.524 94.989 C 302.035 94.115,301.222 93.218,300.717 92.996 C 298.978 92.229,297.952 91.396,297.137 90.088 C 296.687 89.366,295.581 88.398,294.678 87.938 C 293.775 87.477,292.038 86.154,290.818 84.998 C 289.598 83.842,287.676 82.433,286.547 81.866 C 285.418 81.298,283.939 80.133,283.261 79.277 C 282.463 78.269,281.352 77.468,280.114 77.008 C 279.061 76.618,277.570 75.700,276.800 74.970 C 275.524 73.759,274.416 73.173,269.309 71.004 C 268.379 70.610,267.345 69.871,267.013 69.363 C 266.586 68.712,265.274 68.077,262.559 67.207 C 258.132 65.789,256.892 65.207,255.852 64.057 C 254.982 63.096,252.662 62.282,248.227 61.382 C 246.328 60.996,243.899 60.126,242.179 59.214 C 239.226 57.650,238.123 57.391,229.229 56.176 C 226.715 55.833,223.024 55.028,221.025 54.388 C 214.729 52.371,196.491 51.398,184.200 52.424 M212.173 70.963 C 220.327 74.370,223.858 85.596,220.111 96.200 C 218.091 101.915,214.172 110.704,212.173 114.000 C 211.039 115.870,209.653 118.300,209.093 119.400 C 208.533 120.500,207.500 121.940,206.797 122.600 C 206.095 123.260,204.962 124.610,204.280 125.600 C 203.598 126.590,201.726 128.882,200.120 130.692 C 195.497 135.905,196.095 136.600,205.500 136.951 C 208.965 137.080,215.130 137.462,219.200 137.801 C 223.270 138.139,229.660 138.416,233.400 138.416 C 242.706 138.417,248.982 140.228,253.168 144.122 C 254.176 145.059,255.651 146.225,256.447 146.712 C 257.242 147.200,258.360 148.305,258.931 149.167 C 259.502 150.030,260.604 151.220,261.380 151.812 C 262.157 152.404,263.347 153.858,264.024 155.042 C 264.702 156.227,266.037 158.154,266.992 159.326 C 267.946 160.498,269.259 162.630,269.910 164.065 C 270.560 165.499,271.363 166.777,271.695 166.904 C 274.822 168.104,275.184 179.344,272.194 182.406 C 271.409 183.210,270.256 184.947,269.632 186.267 C 269.008 187.586,268.012 189.047,267.419 189.513 C 266.826 189.980,265.838 191.045,265.224 191.881 C 264.119 193.386,257.928 199.679,249.958 207.400 C 239.742 217.298,224.400 234.227,224.400 235.602 C 224.400 236.671,226.023 237.840,228.800 238.771 C 234.012 240.517,238.759 242.477,240.319 243.526 C 243.564 245.709,247.312 248.984,248.830 250.963 C 249.689 252.084,251.105 253.898,251.977 254.995 C 252.850 256.093,254.048 257.980,254.640 259.189 C 255.232 260.399,256.230 261.867,256.857 262.453 C 257.484 263.039,258.550 264.751,259.226 266.258 C 259.902 267.765,261.147 269.898,261.993 270.999 C 262.839 272.099,263.972 274.003,264.512 275.229 C 265.052 276.455,265.939 277.808,266.483 278.237 C 267.028 278.665,267.979 279.817,268.597 280.796 C 269.215 281.775,270.560 283.481,271.586 284.588 C 272.611 285.695,274.153 287.500,275.011 288.600 C 275.870 289.700,277.187 291.230,277.938 292.000 C 278.689 292.770,279.566 294.030,279.887 294.800 C 280.208 295.570,281.154 296.920,281.989 297.800 C 285.530 301.531,285.493 309.826,281.920 313.108 C 280.013 314.860,276.142 315.311,265.200 315.057 C 253.547 314.786,251.163 314.383,248.848 312.291 C 247.962 311.490,246.526 310.473,245.659 310.030 C 244.792 309.588,243.659 308.660,243.141 307.968 C 242.623 307.276,241.282 305.748,240.159 304.571 C 238.774 303.119,237.836 301.656,237.238 300.015 C 236.753 298.686,235.630 296.759,234.741 295.732 C 233.853 294.706,232.677 292.916,232.127 291.755 C 231.577 290.594,230.706 289.368,230.191 289.031 C 229.676 288.693,228.591 287.419,227.782 286.199 C 226.403 284.122,225.024 282.472,219.253 276.000 C 217.978 274.570,216.627 272.924,216.250 272.343 C 215.873 271.762,214.627 270.286,213.482 269.064 C 210.237 265.602,208.202 263.148,207.070 261.332 C 205.316 258.518,200.909 258.419,198.897 261.148 C 197.944 262.440,194.596 265.991,191.681 268.800 C 191.110 269.350,190.273 270.217,189.821 270.727 C 189.370 271.236,187.830 272.896,186.400 274.416 C 184.970 275.935,182.630 278.456,181.200 280.018 C 179.770 281.580,177.700 283.814,176.600 284.983 C 174.471 287.244,171.387 290.920,168.332 294.838 C 167.304 296.155,165.835 297.928,165.067 298.778 C 164.300 299.628,163.286 301.196,162.816 302.262 C 162.345 303.328,161.373 304.830,160.656 305.600 C 159.938 306.370,158.935 307.630,158.426 308.400 C 155.185 313.305,151.563 314.796,142.200 315.081 C 129.639 315.464,120.400 314.182,120.400 312.057 C 120.400 311.887,119.660 311.331,118.755 310.823 C 115.011 308.718,114.633 301.479,118.041 297.127 C 118.675 296.317,119.922 294.247,120.812 292.527 C 121.701 290.807,122.976 288.971,123.645 288.448 C 124.313 287.924,125.323 286.518,125.888 285.323 C 126.454 284.129,127.532 282.682,128.285 282.108 C 129.037 281.534,130.014 280.357,130.455 279.493 C 130.896 278.628,131.934 277.173,132.761 276.260 C 133.589 275.347,135.198 273.356,136.337 271.835 C 137.477 270.314,138.733 268.842,139.129 268.565 C 139.525 268.287,140.369 267.281,141.004 266.330 C 142.047 264.768,144.702 261.862,148.069 258.600 C 148.750 257.940,149.868 256.782,150.554 256.027 C 151.871 254.577,152.380 254.101,156.937 250.065 C 163.828 243.962,166.743 241.193,176.866 231.136 C 190.746 217.346,190.684 217.846,178.523 217.786 C 171.116 217.750,169.933 217.651,167.770 216.892 C 163.032 215.228,157.830 212.536,156.400 211.008 C 155.630 210.186,154.313 209.073,153.474 208.535 C 152.634 207.997,151.579 206.932,151.129 206.169 C 150.678 205.405,149.523 204.320,148.561 203.756 C 147.548 203.163,146.439 202.066,145.924 201.150 C 145.411 200.238,144.358 199.195,143.433 198.685 C 142.551 198.198,141.310 197.026,140.675 196.080 C 140.040 195.134,138.846 193.934,138.022 193.414 C 137.198 192.893,136.215 191.818,135.838 191.024 C 135.458 190.224,134.436 189.128,133.543 188.564 C 132.657 188.005,131.633 186.976,131.266 186.278 C 130.900 185.580,129.690 184.106,128.577 183.004 C 127.126 181.566,126.241 180.210,125.444 178.200 C 124.834 176.660,124.010 175.040,123.614 174.600 C 120.432 171.066,120.243 160.521,123.275 155.750 C 123.957 154.677,124.952 152.550,125.487 151.023 C 126.734 147.460,127.285 146.423,128.568 145.224 C 129.143 144.688,130.044 143.513,130.571 142.613 C 131.470 141.080,135.030 137.502,140.733 132.400 C 148.139 125.775,155.270 117.889,160.808 110.200 C 161.917 108.660,163.404 106.696,164.112 105.836 C 164.821 104.977,165.850 103.516,166.400 102.590 C 166.950 101.665,167.994 100.208,168.720 99.354 C 170.251 97.552,174.385 92.297,176.365 89.635 C 177.116 88.626,178.601 86.840,179.665 85.668 C 180.729 84.495,181.600 83.373,181.600 83.173 C 181.600 82.394,188.506 75.960,190.341 75.030 C 191.411 74.488,192.807 73.610,193.443 73.078 C 196.952 70.149,207.400 68.969,212.173 70.963 M186.658 146.296 C 184.642 146.453,182.459 147.809,179.182 150.940 C 178.401 151.685,177.141 152.612,176.382 152.999 C 175.622 153.385,173.920 154.692,172.600 155.901 C 171.280 157.111,169.829 158.424,169.375 158.820 C 167.649 160.326,167.339 166.788,168.853 169.683 C 169.049 170.059,170.693 171.092,172.505 171.980 C 174.317 172.868,176.520 174.133,177.400 174.791 C 178.280 175.449,179.683 176.202,180.518 176.463 C 183.806 177.491,190.305 184.101,192.607 188.759 C 193.352 190.267,194.481 192.019,195.115 192.654 C 196.951 194.490,197.167 195.221,197.454 200.583 C 197.727 205.702,198.350 207.619,199.729 207.590 C 199.988 207.584,201.910 205.756,204.000 203.526 C 206.090 201.297,208.415 198.917,209.166 198.236 C 209.918 197.556,210.998 196.460,211.566 195.800 C 212.135 195.140,213.418 193.790,214.417 192.800 C 215.416 191.810,216.664 190.370,217.189 189.600 C 217.714 188.830,218.884 187.390,219.789 186.400 C 224.296 181.469,222.616 176.259,215.607 173.428 C 214.180 172.852,212.365 171.747,211.573 170.973 C 210.780 170.199,209.067 169.058,207.766 168.437 C 206.465 167.816,204.561 166.562,203.535 165.650 C 202.509 164.739,200.902 163.557,199.964 163.025 C 195.755 160.633,190.000 152.074,190.000 148.203 C 190.000 147.445,188.961 145.779,188.671 146.072 C 188.632 146.112,187.726 146.212,186.658 146.296 M189.203 215.190 C 188.778 215.458,188.730 215.690,189.036 215.996 C 189.549 216.509,190.895 216.085,190.692 215.476 C 190.489 214.867,189.895 214.753,189.203 215.190 " stroke="none" fill="#040404" fill-rule="evenodd"></path><path id="path2" d="M181.200 39.841 C 172.620 40.399,168.086 41.257,162.400 43.400 C 161.410 43.773,158.260 44.419,155.400 44.835 C 149.680 45.667,148.566 46.009,146.200 47.658 C 145.200 48.355,143.250 49.084,141.000 49.602 C 135.023 50.979,134.521 51.162,132.791 52.607 C 131.812 53.425,130.192 54.254,128.862 54.616 C 125.732 55.469,123.538 56.527,121.873 57.990 C 121.094 58.674,119.329 59.614,117.951 60.079 C 116.448 60.587,114.797 61.520,113.823 62.411 C 112.930 63.228,110.846 64.520,109.190 65.281 C 107.382 66.112,105.902 67.090,105.482 67.731 C 105.098 68.317,103.726 69.331,102.432 69.984 C 101.139 70.636,99.740 71.605,99.322 72.136 C 98.904 72.667,97.311 73.916,95.781 74.912 C 94.252 75.908,92.117 77.640,91.038 78.761 C 89.959 79.883,88.902 80.800,88.689 80.800 C 88.263 80.800,85.706 83.258,78.774 90.329 C 77.550 91.578,75.945 93.454,75.209 94.497 C 74.472 95.540,73.437 96.677,72.910 97.022 C 72.383 97.368,71.120 98.944,70.103 100.525 C 69.087 102.106,67.607 104.037,66.814 104.815 C 66.022 105.594,65.064 107.040,64.686 108.029 C 64.246 109.182,63.559 110.088,62.772 110.553 C 61.905 111.065,61.144 112.155,60.183 114.266 C 59.434 115.909,58.093 118.080,57.203 119.092 C 56.212 120.218,55.347 121.747,54.971 123.039 C 54.634 124.199,53.660 126.024,52.807 127.096 C 51.192 129.125,50.479 130.675,49.437 134.430 C 49.097 135.656,48.435 137.006,47.967 137.430 C 46.702 138.573,45.609 140.956,44.977 143.944 C 44.110 148.051,43.728 149.130,42.421 151.168 C 40.757 153.761,40.527 154.576,39.618 161.106 C 39.018 165.416,38.515 167.514,37.566 169.678 C 33.277 179.450,33.294 225.816,37.590 235.912 C 38.440 237.910,39.040 240.400,39.607 244.278 C 40.551 250.738,40.916 252.015,42.471 254.291 C 43.215 255.381,44.042 257.617,44.797 260.587 C 46.095 265.692,46.198 265.939,47.961 268.154 C 48.642 269.008,49.385 270.448,49.613 271.354 C 50.392 274.443,51.297 276.483,52.495 277.847 C 53.153 278.596,54.186 280.425,54.790 281.911 C 55.395 283.396,56.773 285.779,57.852 287.206 C 58.932 288.633,60.043 290.561,60.321 291.492 C 60.663 292.634,61.349 293.604,62.431 294.473 C 63.317 295.185,64.393 296.575,64.836 297.581 C 65.277 298.581,66.327 300.120,67.169 301.000 C 68.010 301.880,69.328 303.602,70.098 304.827 C 70.867 306.052,72.425 308.032,73.559 309.227 C 74.694 310.422,76.694 312.570,78.003 314.000 C 80.883 317.144,82.989 319.249,86.304 322.298 C 87.681 323.564,89.751 325.523,90.904 326.651 C 92.057 327.779,94.080 329.381,95.400 330.211 C 96.720 331.041,98.620 332.478,99.622 333.404 C 100.625 334.329,102.095 335.301,102.890 335.564 C 103.707 335.833,104.807 336.659,105.419 337.460 C 106.093 338.345,107.423 339.296,108.950 339.987 C 110.298 340.596,112.468 341.930,113.773 342.950 C 115.079 343.971,117.113 345.110,118.295 345.482 C 119.476 345.855,121.108 346.727,121.921 347.421 C 123.881 349.093,125.324 349.803,128.356 350.589 C 130.002 351.015,131.553 351.777,132.828 352.784 C 134.504 354.110,135.465 354.484,139.651 355.444 C 142.717 356.148,144.981 356.902,145.761 357.480 C 148.186 359.276,150.200 359.934,155.240 360.578 C 160.835 361.292,161.650 361.485,165.384 362.979 C 175.415 366.992,221.730 366.762,230.884 362.654 C 233.524 361.469,233.881 361.389,240.000 360.596 C 245.090 359.937,247.440 359.181,249.163 357.652 C 250.165 356.763,251.564 356.298,256.073 355.358 C 259.653 354.611,260.522 354.249,262.680 352.601 C 263.689 351.831,265.254 351.014,266.158 350.786 C 269.377 349.974,271.421 349.060,272.835 347.799 C 273.624 347.095,275.514 346.044,277.035 345.463 C 278.556 344.881,280.784 343.599,281.986 342.612 C 283.188 341.626,285.061 340.499,286.149 340.109 C 287.481 339.631,288.588 338.847,289.544 337.704 C 290.338 336.754,291.577 335.806,292.359 335.548 C 293.127 335.294,294.575 334.338,295.578 333.424 C 296.580 332.509,298.587 331.002,300.039 330.073 C 301.490 329.145,303.254 327.668,303.960 326.790 C 304.665 325.913,305.934 324.842,306.781 324.410 C 307.627 323.978,308.719 322.978,309.208 322.187 C 309.697 321.396,310.781 320.317,311.617 319.790 C 312.452 319.262,313.639 318.148,314.254 317.315 C 314.869 316.482,316.278 314.865,317.386 313.722 C 318.494 312.580,320.321 310.690,321.447 309.522 C 322.573 308.355,324.310 306.140,325.307 304.600 C 326.304 303.060,327.606 301.350,328.200 300.800 C 328.794 300.250,329.784 298.810,330.399 297.600 C 331.014 296.390,332.077 294.989,332.761 294.486 C 333.509 293.937,334.478 292.527,335.195 290.948 C 335.849 289.504,336.940 287.690,337.619 286.917 C 338.802 285.570,339.753 283.776,340.843 280.839 C 341.120 280.091,342.032 278.688,342.868 277.722 C 343.827 276.614,344.622 275.124,345.024 273.683 C 346.175 269.553,346.434 268.869,347.044 268.364 C 348.344 267.284,349.600 264.409,350.575 260.276 C 351.249 257.416,351.982 255.385,352.739 254.276 C 354.256 252.056,354.628 250.777,355.575 244.523 C 356.120 240.927,356.821 238.105,357.776 235.662 C 361.975 224.915,361.858 179.006,357.605 169.200 C 356.924 167.630,356.212 164.857,355.807 162.200 C 354.688 154.861,354.430 153.887,352.978 151.523 C 352.209 150.271,351.295 148.021,350.948 146.523 C 349.657 140.960,349.170 139.639,347.800 138.000 C 346.920 136.946,346.082 135.262,345.544 133.462 C 344.465 129.856,343.821 128.568,342.187 126.745 C 341.446 125.918,340.603 124.326,340.235 123.062 C 339.831 121.670,338.980 120.132,337.968 118.963 C 337.077 117.934,335.798 115.861,335.125 114.356 C 334.349 112.621,333.413 111.247,332.566 110.601 C 331.831 110.040,330.854 108.731,330.396 107.691 C 329.938 106.651,328.791 104.990,327.849 104.000 C 326.906 103.010,325.546 101.255,324.826 100.101 C 324.107 98.947,322.951 97.528,322.259 96.949 C 321.567 96.369,320.442 95.115,319.759 94.161 C 318.641 92.597,317.515 91.372,313.290 87.119 C 310.187 83.995,306.834 80.928,305.506 80.000 C 304.719 79.450,303.753 78.522,303.359 77.937 C 302.966 77.352,301.644 76.274,300.422 75.541 C 299.200 74.808,297.390 73.464,296.400 72.554 C 295.410 71.644,293.686 70.440,292.569 69.878 C 291.452 69.316,290.075 68.250,289.510 67.508 C 288.798 66.575,287.614 65.811,285.663 65.025 C 284.113 64.402,282.340 63.359,281.723 62.709 C 280.458 61.377,278.398 60.227,276.574 59.833 C 275.899 59.688,274.534 58.897,273.540 58.075 C 271.536 56.419,269.739 55.560,266.302 54.612 C 265.038 54.264,263.418 53.470,262.702 52.848 C 260.792 51.189,260.176 50.941,255.184 49.814 C 251.639 49.014,250.184 48.473,248.558 47.353 C 246.712 46.082,245.910 45.831,241.537 45.154 C 235.982 44.294,233.517 43.699,229.250 42.190 C 223.704 40.229,196.040 38.877,181.200 39.841 M211.737 42.451 C 214.143 42.685,217.296 43.288,218.819 43.806 C 222.488 45.055,226.619 45.836,233.600 46.602 C 240.503 47.359,241.793 47.667,243.573 48.980 C 245.220 50.195,247.423 50.945,252.383 51.979 C 254.596 52.440,256.587 53.105,257.183 53.582 C 258.879 54.942,261.678 56.262,264.000 56.798 C 266.726 57.427,267.416 57.772,269.283 59.441 C 270.250 60.306,271.778 61.067,273.683 61.633 C 275.938 62.302,277.009 62.891,278.400 64.226 C 279.567 65.346,281.244 66.370,283.170 67.140 C 285.185 67.946,286.535 68.786,287.370 69.754 C 288.046 70.539,289.434 71.530,290.454 71.956 C 291.530 72.407,292.775 73.344,293.421 74.192 C 294.034 74.995,295.237 76.011,296.095 76.449 C 296.953 76.886,298.702 78.179,299.980 79.322 C 301.259 80.465,304.060 82.930,306.204 84.800 C 308.348 86.670,310.665 88.801,311.351 89.536 C 313.938 92.304,317.097 95.868,318.676 97.800 C 319.576 98.900,320.968 100.494,321.770 101.343 C 322.572 102.192,323.570 103.557,323.988 104.376 C 324.405 105.195,325.375 106.344,326.143 106.929 C 326.935 107.534,327.962 108.919,328.518 110.133 C 329.057 111.310,330.027 112.650,330.675 113.111 C 331.465 113.673,332.239 114.913,333.026 116.875 C 333.765 118.717,334.896 120.571,336.080 121.882 C 337.261 123.191,338.122 124.602,338.398 125.682 C 339.126 128.529,339.675 129.638,341.272 131.483 C 342.110 132.451,342.902 133.729,343.033 134.322 C 343.163 134.915,343.519 136.311,343.824 137.425 C 344.319 139.233,344.779 140.049,346.966 143.000 C 347.293 143.440,348.013 145.941,348.567 148.558 C 349.121 151.175,349.940 154.010,350.387 154.858 C 350.834 155.706,351.566 157.094,352.014 157.943 C 352.586 159.028,353.111 161.672,353.782 166.843 C 354.828 174.902,355.168 176.649,356.372 180.132 C 359.081 187.964,358.981 217.319,356.217 225.785 C 355.158 229.030,354.224 233.948,353.782 238.600 C 353.275 243.945,352.522 246.914,351.061 249.333 C 350.286 250.617,349.458 252.597,349.220 253.733 C 347.691 261.047,347.498 261.646,346.164 263.243 C 344.945 264.702,343.763 267.646,343.029 271.048 C 342.881 271.734,341.982 273.206,341.032 274.319 C 339.782 275.783,339.107 277.070,338.593 278.971 C 338.034 281.037,337.488 282.011,336.041 283.527 C 334.769 284.860,333.891 286.304,333.200 288.197 C 332.501 290.114,331.733 291.369,330.646 292.369 C 329.791 293.156,328.831 294.430,328.511 295.200 C 328.192 295.970,327.112 297.441,326.112 298.468 C 325.112 299.495,323.912 300.962,323.447 301.727 C 322.305 303.604,317.873 308.882,315.346 311.374 C 314.217 312.488,312.801 314.160,312.201 315.089 C 311.600 316.018,310.318 317.241,309.351 317.807 C 308.385 318.374,307.309 319.272,306.961 319.804 C 306.612 320.335,304.724 322.037,302.764 323.585 C 300.804 325.133,299.200 326.541,299.200 326.713 C 299.200 326.885,298.048 327.730,296.640 328.591 C 295.232 329.452,293.803 330.625,293.465 331.197 C 293.127 331.770,291.710 332.811,290.316 333.512 C 288.824 334.261,287.508 335.248,287.117 335.910 C 286.622 336.748,285.576 337.375,283.002 338.376 C 280.500 339.349,279.284 340.068,278.582 340.988 C 277.470 342.446,276.713 342.867,273.439 343.843 C 271.989 344.276,270.400 345.134,269.322 346.068 C 268.204 347.035,266.735 347.816,265.283 348.215 C 261.566 349.238,259.635 350.023,258.484 350.980 C 256.817 352.366,256.066 352.661,252.400 353.373 C 248.194 354.190,246.181 354.908,243.394 356.587 C 241.617 357.657,240.514 357.981,237.312 358.372 C 227.808 359.532,222.112 360.519,219.650 361.434 C 212.615 364.048,184.294 364.247,176.800 361.736 C 173.381 360.590,169.788 359.848,164.600 359.215 C 153.991 357.922,154.316 357.992,151.600 356.404 C 148.668 354.690,147.618 354.329,142.800 353.382 C 139.092 352.652,138.490 352.408,136.400 350.780 C 135.110 349.774,133.706 349.229,129.382 348.056 C 128.493 347.815,127.053 346.981,126.182 346.204 C 124.629 344.816,121.099 343.200,119.621 343.200 C 119.209 343.200,118.103 342.393,117.162 341.406 C 115.883 340.064,114.623 339.285,112.158 338.314 C 109.709 337.349,108.689 336.721,108.186 335.868 C 107.792 335.201,106.647 334.322,105.454 333.769 C 104.324 333.246,102.680 332.077,101.800 331.172 C 100.920 330.267,99.356 328.958,98.324 328.263 C 95.533 326.384,90.864 322.459,88.827 320.278 C 87.840 319.222,86.353 317.975,85.523 317.509 C 84.693 317.042,83.542 315.927,82.965 315.030 C 82.388 314.134,81.038 312.500,79.966 311.400 C 76.916 308.272,73.134 303.755,71.600 301.405 C 70.830 300.226,69.625 298.789,68.921 298.213 C 68.218 297.636,67.203 296.205,66.666 295.031 C 66.057 293.701,65.230 292.627,64.470 292.178 C 63.539 291.628,62.986 290.752,62.126 288.464 C 61.374 286.465,60.391 284.795,59.165 283.435 C 57.903 282.036,57.178 280.788,56.844 279.440 C 56.245 277.024,55.567 275.680,54.296 274.392 C 52.956 273.033,52.390 271.860,51.750 269.117 C 51.113 266.387,50.027 264.109,48.858 263.052 C 47.873 262.161,47.439 260.891,46.638 256.555 C 45.962 252.898,45.097 250.478,43.703 248.344 C 42.675 246.770,42.041 243.760,40.978 235.400 C 40.614 232.540,39.864 228.670,39.312 226.800 C 37.748 221.505,37.613 220.735,37.200 214.682 C 36.314 201.703,36.969 186.617,38.670 180.873 C 40.157 175.848,40.721 173.013,41.413 167.075 C 42.170 160.576,42.513 159.256,44.266 156.115 C 45.277 154.303,45.919 152.313,46.639 148.767 C 47.492 144.562,47.814 143.674,49.015 142.208 C 50.397 140.521,51.624 137.586,52.163 134.676 C 52.322 133.815,53.020 132.511,53.768 131.676 C 55.371 129.887,56.098 128.494,56.939 125.600 C 57.389 124.051,58.032 122.976,59.113 121.966 C 60.154 120.994,61.084 119.478,62.002 117.255 C 62.969 114.912,63.739 113.684,64.699 112.952 C 65.462 112.369,66.449 111.007,66.984 109.797 C 67.503 108.625,68.410 107.350,69.002 106.962 C 69.593 106.575,70.886 105.029,71.875 103.528 C 72.864 102.027,73.884 100.664,74.142 100.499 C 74.400 100.335,75.410 99.210,76.385 98.000 C 78.068 95.913,81.100 92.476,83.851 89.536 C 84.539 88.801,86.760 86.760,88.788 85.000 C 90.816 83.240,93.610 80.778,94.996 79.529 C 96.382 78.281,98.245 76.887,99.135 76.433 C 100.025 75.979,101.253 74.953,101.863 74.152 C 102.500 73.318,103.747 72.375,104.787 71.942 C 105.784 71.527,107.230 70.503,108.000 69.667 C 108.959 68.625,110.306 67.799,112.279 67.046 C 114.265 66.287,115.691 65.411,116.879 64.219 C 118.232 62.862,119.213 62.311,121.462 61.646 C 123.292 61.105,124.936 60.289,126.021 59.383 C 128.161 57.595,128.516 57.417,131.200 56.798 C 133.505 56.266,136.068 55.044,138.359 53.385 C 139.107 52.843,140.097 52.395,140.559 52.389 C 142.930 52.356,149.361 50.415,151.530 49.076 C 154.011 47.544,155.529 47.197,163.200 46.407 C 168.272 45.885,172.904 44.996,175.858 43.980 C 182.192 41.801,198.097 41.123,211.737 42.451 M180.570 50.019 C 173.622 50.415,169.949 51.019,167.022 52.249 C 163.063 53.911,161.456 54.326,156.463 54.976 C 151.443 55.629,149.301 56.308,147.514 57.811 C 146.278 58.851,145.139 59.249,140.661 60.203 C 138.167 60.734,137.207 61.157,135.983 62.263 C 134.881 63.259,133.290 64.032,130.375 64.989 C 127.446 65.951,126.007 66.652,125.242 67.489 C 124.586 68.208,122.995 69.085,121.087 69.781 C 118.763 70.629,117.573 71.345,116.298 72.666 C 115.295 73.703,113.947 74.619,113.005 74.903 C 112.101 75.175,110.716 76.096,109.805 77.030 C 108.922 77.936,107.221 79.200,106.026 79.838 C 104.830 80.477,102.778 82.035,101.468 83.300 C 100.157 84.565,98.854 85.600,98.573 85.600 C 98.292 85.600,97.205 86.603,96.157 87.830 C 95.110 89.056,93.569 90.408,92.733 90.834 C 91.864 91.278,90.912 92.194,90.507 92.978 C 90.118 93.732,89.038 94.899,88.106 95.572 C 87.175 96.245,85.950 97.529,85.385 98.424 C 84.819 99.320,83.778 100.394,83.071 100.811 C 82.364 101.228,81.249 102.489,80.593 103.613 C 79.937 104.737,78.820 106.100,78.111 106.641 C 77.401 107.182,76.058 108.924,75.125 110.512 C 74.193 112.101,72.758 114.065,71.938 114.877 C 71.117 115.690,70.222 117.102,69.948 118.015 C 69.674 118.929,68.840 120.244,68.093 120.938 C 66.675 122.256,65.260 124.717,64.408 127.348 C 64.132 128.199,63.234 129.588,62.412 130.435 C 61.258 131.625,60.708 132.712,59.993 135.223 C 59.331 137.549,58.632 139.000,57.535 140.328 C 55.866 142.348,55.587 143.044,54.582 147.720 C 54.124 149.847,53.478 151.469,52.550 152.818 C 51.066 154.975,50.291 157.745,49.601 163.355 C 49.322 165.622,48.647 168.231,47.738 170.555 C 45.209 177.023,45.024 179.203,45.014 202.600 C 45.005 225.696,45.255 228.842,47.558 234.504 C 49.083 238.254,49.076 238.226,49.806 243.490 C 50.501 248.503,51.178 250.759,52.532 252.573 C 53.682 254.112,54.229 255.554,54.821 258.600 C 55.432 261.751,56.138 263.396,57.585 265.044 C 58.326 265.888,59.183 267.712,59.862 269.890 C 60.647 272.408,61.357 273.830,62.406 274.991 C 63.207 275.876,64.289 277.763,64.811 279.185 C 65.419 280.840,66.434 282.513,67.634 283.837 C 68.664 284.975,69.729 286.602,70.000 287.453 C 70.271 288.304,71.177 289.720,72.013 290.600 C 72.849 291.480,74.185 293.322,74.981 294.692 C 75.778 296.063,77.278 298.044,78.315 299.094 C 79.352 300.145,80.500 301.576,80.866 302.276 C 81.233 302.975,82.264 304.009,83.158 304.574 C 84.080 305.155,85.137 306.293,85.600 307.200 C 86.056 308.094,87.118 309.243,88.005 309.803 C 88.879 310.355,90.045 311.521,90.597 312.395 C 91.157 313.282,92.306 314.344,93.200 314.800 C 94.080 315.249,95.237 316.308,95.770 317.153 C 96.303 317.997,97.550 319.164,98.540 319.744 C 99.531 320.324,100.849 321.411,101.471 322.159 C 102.092 322.907,103.770 324.191,105.200 325.012 C 106.630 325.833,108.520 327.192,109.400 328.033 C 110.280 328.873,111.990 330.000,113.200 330.536 C 114.410 331.072,115.796 332.051,116.280 332.712 C 116.893 333.549,118.245 334.363,120.746 335.399 C 122.737 336.225,124.830 337.405,125.449 338.051 C 126.248 338.885,127.660 339.554,130.407 340.402 C 133.001 341.203,134.566 341.927,135.225 342.632 C 136.636 344.143,137.868 344.680,142.062 345.613 C 144.719 346.203,146.379 346.835,147.800 347.796 C 150.127 349.370,151.557 349.789,157.405 350.610 C 160.047 350.981,162.871 351.682,164.749 352.434 C 171.733 355.231,179.023 355.804,203.200 355.457 C 221.715 355.191,224.007 354.950,229.889 352.646 C 232.317 351.696,235.033 350.997,237.833 350.604 C 243.641 349.789,245.076 349.368,247.400 347.796 C 248.821 346.835,250.481 346.203,253.138 345.613 C 257.320 344.682,258.565 344.142,259.957 342.651 C 260.596 341.968,262.217 341.222,264.825 340.412 C 267.705 339.517,269.033 338.880,269.868 337.992 C 270.490 337.330,271.953 336.430,273.118 335.993 C 276.539 334.709,278.324 333.671,279.239 332.432 C 279.711 331.794,280.926 330.955,281.938 330.569 C 282.950 330.182,284.593 329.113,285.589 328.193 C 286.585 327.273,288.613 325.849,290.095 325.028 C 291.578 324.208,293.168 323.006,293.629 322.359 C 294.091 321.711,295.416 320.575,296.575 319.833 C 297.734 319.092,299.060 317.874,299.521 317.127 C 299.983 316.381,301.097 315.356,301.998 314.849 C 302.898 314.343,304.068 313.243,304.597 312.405 C 305.126 311.566,306.322 310.367,307.254 309.740 C 308.187 309.113,309.411 307.827,309.975 306.883 C 310.539 305.939,311.585 304.817,312.300 304.389 C 313.015 303.961,314.154 302.711,314.831 301.611 C 315.508 300.510,316.548 299.264,317.142 298.841 C 317.736 298.418,318.936 296.841,319.808 295.336 C 320.681 293.831,322.158 291.774,323.092 290.764 C 324.026 289.753,325.069 288.137,325.410 287.172 C 325.750 286.207,326.719 284.754,327.563 283.944 C 328.554 282.991,329.556 281.362,330.398 279.335 C 331.113 277.611,332.298 275.534,333.031 274.720 C 333.950 273.698,334.687 272.174,335.412 269.799 C 336.066 267.652,336.902 265.857,337.632 265.025 C 339.063 263.395,339.770 261.742,340.379 258.600 C 340.969 255.562,341.540 254.013,342.445 252.995 C 343.833 251.435,344.747 248.543,345.548 243.182 C 346.092 239.546,346.773 236.728,347.621 234.611 C 351.608 224.654,351.866 181.392,347.996 171.727 C 346.480 167.940,346.140 166.603,345.422 161.600 C 344.663 156.309,344.204 154.707,343.044 153.312 C 341.619 151.599,341.287 150.782,340.402 146.810 C 339.484 142.688,338.938 141.431,337.466 140.057 C 336.809 139.443,336.067 137.847,335.347 135.497 C 334.529 132.832,333.902 131.554,332.961 130.640 C 332.185 129.885,331.201 128.141,330.445 126.182 C 329.537 123.825,328.749 122.527,327.502 121.334 C 326.433 120.310,325.538 118.952,325.095 117.683 C 324.699 116.549,323.867 115.223,323.200 114.661 C 322.545 114.111,321.343 112.522,320.527 111.130 C 319.712 109.739,318.232 107.731,317.238 106.668 C 316.245 105.606,315.042 104.091,314.565 103.301 C 314.089 102.512,313.003 101.393,312.152 100.816 C 311.302 100.238,310.220 99.077,309.748 98.235 C 309.276 97.394,308.077 96.177,307.084 95.531 C 306.080 94.878,305.054 93.813,304.771 93.129 C 304.464 92.389,303.433 91.372,302.173 90.565 C 301.023 89.830,299.717 88.637,299.269 87.914 C 298.821 87.191,297.858 86.257,297.128 85.837 C 296.397 85.417,294.900 84.236,293.800 83.212 C 292.700 82.188,290.689 80.700,289.330 79.906 C 287.972 79.111,286.145 77.745,285.271 76.871 C 284.397 75.997,283.094 75.152,282.376 74.995 C 281.605 74.825,280.293 73.931,279.173 72.811 C 277.772 71.410,276.565 70.665,274.551 69.957 C 273.001 69.413,271.083 68.359,270.105 67.515 C 268.828 66.411,267.362 65.714,264.399 64.800 C 261.708 63.969,260.276 63.315,259.994 62.789 C 259.372 61.626,257.568 60.844,253.475 59.961 C 250.824 59.389,249.243 58.790,247.800 57.809 C 245.083 55.962,244.262 55.699,239.083 55.016 C 234.312 54.386,231.088 53.564,228.780 52.389 C 224.137 50.024,200.689 48.871,180.570 50.019 M214.596 52.793 C 216.134 53.030,219.027 53.748,221.025 54.388 C 223.024 55.028,226.715 55.833,229.229 56.176 C 238.123 57.391,239.226 57.650,242.179 59.214 C 243.899 60.126,246.328 60.996,248.227 61.382 C 252.662 62.282,254.982 63.096,255.852 64.057 C 256.892 65.207,258.132 65.789,262.559 67.207 C 265.274 68.077,266.586 68.712,267.013 69.363 C 267.345 69.871,268.379 70.610,269.309 71.004 C 274.416 73.173,275.524 73.759,276.800 74.970 C 277.570 75.700,279.061 76.618,280.114 77.008 C 281.352 77.468,282.463 78.269,283.261 79.277 C 283.939 80.133,285.418 81.298,286.547 81.866 C 287.676 82.433,289.598 83.842,290.818 84.998 C 292.038 86.154,293.775 87.477,294.678 87.938 C 295.581 88.398,296.687 89.366,297.137 90.088 C 297.952 91.396,298.978 92.229,300.717 92.996 C 301.222 93.218,302.035 94.115,302.524 94.989 C 303.013 95.863,304.168 97.085,305.089 97.704 C 306.011 98.323,307.165 99.540,307.652 100.408 C 308.140 101.276,309.224 102.439,310.062 102.993 C 310.899 103.548,311.944 104.707,312.384 105.569 C 312.824 106.432,314.154 108.187,315.338 109.469 C 316.522 110.751,317.958 112.724,318.529 113.853 C 319.099 114.982,320.281 116.472,321.154 117.164 C 322.275 118.051,322.939 119.011,323.406 120.419 C 323.771 121.518,324.824 123.300,325.746 124.381 C 326.709 125.508,327.844 127.491,328.411 129.037 C 328.992 130.619,329.962 132.300,330.761 133.112 C 331.753 134.121,332.418 135.439,333.213 137.975 C 334.435 141.871,335.239 143.602,336.197 144.397 C 337.141 145.181,337.981 147.384,338.638 150.800 C 339.433 154.934,339.930 156.342,341.252 158.200 C 342.504 159.959,343.090 162.566,344.219 171.400 C 344.585 174.260,345.336 178.130,345.888 180.000 C 347.500 185.457,347.560 185.841,348.025 193.600 C 348.792 206.421,348.013 218.780,346.050 224.908 C 345.276 227.323,344.570 230.966,344.015 235.404 C 343.037 243.231,342.451 245.548,340.869 247.862 C 340.138 248.930,339.484 250.715,339.037 252.862 C 337.997 257.857,337.241 259.925,335.896 261.457 C 335.115 262.347,334.206 264.288,333.351 266.890 C 332.448 269.641,331.641 271.334,330.833 272.170 C 330.179 272.846,329.122 274.685,328.484 276.254 C 327.846 277.824,326.590 279.984,325.693 281.054 C 324.795 282.125,323.697 283.964,323.253 285.143 C 322.729 286.532,321.890 287.760,320.866 288.636 C 319.998 289.380,318.892 290.745,318.410 291.671 C 317.927 292.596,316.581 294.444,315.417 295.777 C 314.254 297.110,312.917 298.961,312.447 299.892 C 311.977 300.822,311.063 301.857,310.417 302.191 C 309.251 302.794,307.531 304.792,307.088 306.058 C 306.961 306.420,306.160 307.108,305.308 307.587 C 304.456 308.066,303.292 309.231,302.721 310.176 C 302.089 311.223,301.083 312.188,300.147 312.647 C 299.302 313.061,298.068 314.138,297.405 315.039 C 296.742 315.941,295.480 317.068,294.600 317.543 C 293.720 318.018,291.920 319.370,290.600 320.546 C 289.280 321.723,287.300 323.152,286.200 323.722 C 285.100 324.292,283.610 325.483,282.888 326.367 C 282.034 327.413,281.012 328.144,279.964 328.458 C 279.078 328.724,277.598 329.603,276.676 330.412 C 274.796 332.061,273.451 332.818,270.306 333.995 C 269.119 334.439,267.623 335.349,266.983 336.018 C 266.129 336.909,264.778 337.556,261.910 338.447 C 259.304 339.257,257.484 340.095,256.445 340.962 C 254.848 342.297,252.885 343.006,247.539 344.178 C 245.855 344.548,243.695 345.346,242.739 345.952 C 240.169 347.580,238.884 347.925,232.030 348.827 C 225.611 349.672,222.358 350.357,219.910 351.380 C 216.224 352.920,201.769 353.773,189.579 353.170 C 181.226 352.756,178.405 352.330,172.963 350.658 C 171.183 350.111,167.313 349.364,164.363 348.998 C 157.559 348.154,154.912 347.484,152.515 345.999 C 151.462 345.346,149.340 344.528,147.800 344.181 C 142.326 342.946,140.485 342.289,138.825 340.975 C 137.741 340.117,135.765 339.216,133.263 338.439 C 130.451 337.565,129.067 336.904,128.239 336.041 C 127.602 335.376,125.674 334.275,123.880 333.552 C 121.919 332.761,119.913 331.588,118.739 330.546 C 117.680 329.606,116.073 328.614,115.166 328.343 C 114.098 328.023,113.075 327.305,112.259 326.304 C 111.567 325.454,110.164 324.325,109.142 323.794 C 108.121 323.264,106.141 321.821,104.742 320.589 C 103.344 319.356,101.569 318.018,100.798 317.616 C 100.027 317.213,98.644 315.992,97.724 314.901 C 96.805 313.811,95.517 312.697,94.863 312.426 C 94.209 312.155,93.193 311.172,92.604 310.241 C 92.016 309.310,90.835 308.116,89.980 307.587 C 89.125 307.059,88.217 306.125,87.963 305.512 C 87.496 304.384,85.081 302.000,84.405 302.000 C 84.203 302.000,83.383 300.882,82.582 299.516 C 81.782 298.150,80.288 296.112,79.263 294.988 C 78.238 293.863,77.136 292.416,76.814 291.772 C 76.491 291.127,75.276 289.578,74.114 288.330 C 72.951 287.081,72.000 285.721,72.000 285.308 C 72.000 284.437,70.090 281.327,68.921 280.293 C 68.481 279.904,67.612 278.284,66.990 276.693 C 66.367 275.102,65.255 273.158,64.519 272.373 C 63.562 271.353,62.805 269.803,61.866 266.945 C 61.125 264.687,60.022 262.258,59.334 261.372 C 57.822 259.421,57.430 258.379,56.406 253.602 C 55.844 250.978,55.168 249.115,54.218 247.576 C 52.745 245.190,52.257 243.023,50.983 233.200 C 50.613 230.343,49.837 226.730,49.173 224.769 C 46.176 215.918,46.062 189.959,48.983 181.330 C 50.116 177.981,50.506 175.956,51.594 167.765 C 52.469 161.179,52.881 159.614,54.216 157.800 C 55.228 156.425,56.176 153.635,56.770 150.280 C 57.218 147.748,58.249 145.354,59.800 143.243 C 60.348 142.497,61.284 140.263,61.880 138.279 C 62.719 135.482,63.257 134.404,64.274 133.478 C 65.002 132.816,65.948 131.316,66.399 130.110 C 67.585 126.942,68.337 125.606,70.006 123.704 C 70.824 122.771,71.722 121.192,72.002 120.194 C 72.359 118.917,72.956 118.027,74.020 117.184 C 74.851 116.526,76.112 114.956,76.822 113.694 C 77.533 112.432,78.832 110.680,79.710 109.800 C 80.588 108.920,81.847 107.242,82.508 106.070 C 83.222 104.805,84.333 103.547,85.247 102.971 C 86.092 102.437,87.144 101.295,87.584 100.432 C 88.024 99.570,89.152 98.349,90.092 97.720 C 91.031 97.091,92.146 95.935,92.570 95.150 C 93.038 94.283,94.036 93.355,95.118 92.781 C 96.096 92.262,97.327 91.186,97.855 90.389 C 98.382 89.592,99.567 88.516,100.488 87.999 C 101.408 87.482,103.194 86.109,104.456 84.948 C 105.719 83.787,107.641 82.387,108.729 81.836 C 109.816 81.285,111.272 80.119,111.964 79.246 C 112.836 78.145,113.813 77.461,115.146 77.018 C 116.205 76.666,117.595 75.827,118.235 75.153 C 119.533 73.786,121.258 72.816,124.634 71.553 C 125.883 71.086,127.563 70.109,128.367 69.382 C 129.406 68.443,130.909 67.734,133.557 66.930 C 136.094 66.161,137.773 65.382,138.815 64.492 C 140.547 63.012,142.482 62.238,146.082 61.585 C 149.384 60.986,151.720 60.166,153.434 59.002 C 154.992 57.946,158.564 57.106,164.479 56.408 C 168.328 55.953,171.611 55.223,177.000 53.622 C 182.166 52.088,206.543 51.550,214.596 52.793 M199.281 70.418 C 196.915 70.843,195.165 71.641,193.443 73.078 C 192.807 73.610,191.411 74.488,190.341 75.030 C 188.506 75.960,181.600 82.394,181.600 83.173 C 181.600 83.373,180.729 84.495,179.665 85.668 C 178.601 86.840,177.116 88.626,176.365 89.635 C 174.385 92.297,170.251 97.552,168.720 99.354 C 167.994 100.208,166.950 101.665,166.400 102.590 C 165.850 103.516,164.821 104.977,164.112 105.836 C 163.404 106.696,161.917 108.660,160.808 110.200 C 155.270 117.889,148.139 125.775,140.733 132.400 C 135.030 137.502,131.470 141.080,130.571 142.613 C 130.044 143.513,129.143 144.688,128.568 145.224 C 127.285 146.423,126.734 147.460,125.487 151.023 C 124.952 152.550,123.957 154.677,123.275 155.750 C 120.243 160.521,120.432 171.066,123.614 174.600 C 124.010 175.040,124.834 176.660,125.444 178.200 C 126.241 180.210,127.126 181.566,128.577 183.004 C 129.690 184.106,130.900 185.580,131.266 186.278 C 131.633 186.976,132.657 188.005,133.543 188.564 C 134.436 189.128,135.458 190.224,135.838 191.024 C 136.215 191.818,137.198 192.893,138.022 193.414 C 138.846 193.934,140.040 195.134,140.675 196.080 C 141.310 197.026,142.551 198.198,143.433 198.685 C 144.358 199.195,145.411 200.238,145.924 201.150 C 146.439 202.066,147.548 203.163,148.561 203.756 C 149.523 204.320,150.678 205.405,151.129 206.169 C 151.579 206.932,152.634 207.997,153.474 208.535 C 154.313 209.073,155.630 210.186,156.400 211.008 C 157.830 212.536,163.032 215.228,167.770 216.892 C 169.933 217.651,171.116 217.750,178.523 217.786 C 190.684 217.846,190.746 217.346,176.866 231.136 C 166.743 241.193,163.828 243.962,156.937 250.065 C 152.380 254.101,151.871 254.577,150.554 256.027 C 149.868 256.782,148.750 257.940,148.069 258.600 C 144.702 261.862,142.047 264.768,141.004 266.330 C 140.369 267.281,139.525 268.287,139.129 268.565 C 138.733 268.842,137.477 270.314,136.337 271.835 C 135.198 273.356,133.589 275.347,132.761 276.260 C 131.934 277.173,130.896 278.628,130.455 279.493 C 130.014 280.357,129.037 281.534,128.285 282.108 C 127.532 282.682,126.454 284.129,125.888 285.323 C 125.323 286.518,124.313 287.924,123.645 288.448 C 122.976 288.971,121.701 290.807,120.812 292.527 C 119.922 294.247,118.675 296.317,118.041 297.127 C 114.633 301.479,115.011 308.718,118.755 310.823 C 119.660 311.331,120.400 311.887,120.400 312.057 C 120.400 314.182,129.639 315.464,142.200 315.081 C 151.563 314.796,155.185 313.305,158.426 308.400 C 158.935 307.630,159.938 306.370,160.656 305.600 C 161.373 304.830,162.345 303.328,162.816 302.262 C 163.286 301.196,164.300 299.628,165.067 298.778 C 165.835 297.928,167.304 296.155,168.332 294.838 C 171.387 290.920,174.471 287.244,176.600 284.983 C 177.700 283.814,179.770 281.580,181.200 280.018 C 182.630 278.456,184.970 275.935,186.400 274.416 C 187.830 272.896,189.370 271.236,189.821 270.727 C 190.273 270.217,191.110 269.350,191.681 268.800 C 194.596 265.991,197.944 262.440,198.897 261.148 C 200.909 258.419,205.316 258.518,207.070 261.332 C 208.202 263.148,210.237 265.602,213.482 269.064 C 214.627 270.286,215.873 271.762,216.250 272.343 C 216.627 272.924,217.978 274.570,219.253 276.000 C 225.024 282.472,226.403 284.122,227.782 286.199 C 228.591 287.419,229.676 288.693,230.191 289.031 C 230.706 289.368,231.577 290.594,232.127 291.755 C 232.677 292.916,233.853 294.706,234.741 295.732 C 235.630 296.759,236.753 298.686,237.238 300.015 C 237.836 301.656,238.774 303.119,240.159 304.571 C 241.282 305.748,242.623 307.276,243.141 307.968 C 243.659 308.660,244.792 309.588,245.659 310.030 C 246.526 310.473,247.962 311.490,248.848 312.291 C 252.776 315.840,278.260 316.469,281.920 313.108 C 285.493 309.826,285.530 301.531,281.989 297.800 C 281.154 296.920,280.208 295.570,279.887 294.800 C 279.566 294.030,278.689 292.770,277.938 292.000 C 277.187 291.230,275.870 289.700,275.011 288.600 C 274.153 287.500,272.611 285.695,271.586 284.588 C 270.560 283.481,269.215 281.775,268.597 280.796 C 267.979 279.817,267.028 278.665,266.483 278.237 C 265.939 277.808,265.052 276.455,264.512 275.229 C 263.972 274.003,262.839 272.099,261.993 270.999 C 261.147 269.898,259.902 267.765,259.226 266.258 C 258.550 264.751,257.484 263.039,256.857 262.453 C 256.230 261.867,255.232 260.399,254.640 259.189 C 254.048 257.980,252.850 256.093,251.977 254.995 C 251.105 253.898,249.689 252.084,248.830 250.963 C 247.312 248.984,243.564 245.709,240.319 243.526 C 238.759 242.477,234.012 240.517,228.800 238.771 C 226.023 237.840,224.400 236.671,224.400 235.602 C 224.400 234.227,239.742 217.298,249.958 207.400 C 257.928 199.679,264.119 193.386,265.224 191.881 C 265.838 191.045,266.826 189.980,267.419 189.513 C 268.012 189.047,269.008 187.586,269.632 186.267 C 270.256 184.947,271.409 183.210,272.194 182.406 C 275.184 179.344,274.822 168.104,271.695 166.904 C 271.363 166.777,270.560 165.499,269.910 164.065 C 269.259 162.630,267.946 160.498,266.992 159.326 C 266.037 158.154,264.702 156.227,264.024 155.042 C 263.347 153.858,262.157 152.404,261.380 151.812 C 260.604 151.220,259.502 150.030,258.931 149.167 C 258.360 148.305,257.242 147.200,256.447 146.712 C 255.651 146.225,254.176 145.059,253.168 144.122 C 248.982 140.228,242.706 138.417,233.400 138.416 C 229.660 138.416,223.270 138.139,219.200 137.801 C 215.130 137.462,208.965 137.080,205.500 136.951 C 196.095 136.600,195.497 135.905,200.120 130.692 C 201.726 128.882,203.598 126.590,204.280 125.600 C 204.962 124.610,206.095 123.260,206.797 122.600 C 207.500 121.940,208.533 120.500,209.093 119.400 C 209.653 118.300,211.039 115.870,212.173 114.000 C 214.172 110.704,218.091 101.915,220.111 96.200 C 223.858 85.596,220.327 74.370,212.173 70.963 C 210.390 70.218,202.296 69.876,199.281 70.418 M208.045 72.804 C 209.822 73.138,210.481 73.513,211.800 74.943 C 212.680 75.896,213.965 76.969,214.657 77.326 C 218.176 79.145,218.250 92.959,214.771 98.430 C 214.131 99.436,212.955 102.226,212.159 104.630 C 211.233 107.424,210.310 109.433,209.599 110.200 C 208.987 110.860,207.861 112.767,207.097 114.439 C 206.334 116.110,205.077 118.180,204.304 119.039 C 203.532 119.897,202.348 121.474,201.673 122.542 C 200.998 123.610,199.754 125.076,198.909 125.800 C 198.063 126.523,197.046 127.720,196.648 128.460 C 196.249 129.199,195.196 130.343,194.307 131.002 C 193.418 131.661,192.397 132.674,192.038 133.253 C 190.974 134.971,186.192 139.862,184.447 141.016 C 183.557 141.606,182.357 142.705,181.782 143.459 C 181.207 144.213,179.986 145.301,179.068 145.876 C 178.151 146.451,176.440 147.794,175.268 148.861 C 174.095 149.927,172.975 150.800,172.778 150.800 C 171.714 150.800,166.705 155.814,165.661 157.924 C 162.581 164.147,163.870 171.314,168.484 173.628 C 169.428 174.101,170.650 174.907,171.200 175.418 C 172.253 176.397,175.953 178.327,178.519 179.236 C 179.355 179.532,180.485 180.360,181.031 181.076 C 181.577 181.792,182.830 182.932,183.815 183.610 C 184.847 184.320,185.966 185.553,186.457 186.521 C 186.926 187.444,188.383 189.681,189.695 191.491 C 194.914 198.691,193.952 208.440,187.749 211.223 C 179.768 214.804,163.418 213.299,159.137 208.589 C 158.402 207.780,157.080 206.693,156.200 206.173 C 155.320 205.653,154.093 204.586,153.474 203.802 C 152.854 203.018,151.641 201.931,150.778 201.386 C 149.914 200.841,148.750 199.703,148.191 198.858 C 147.632 198.013,146.685 197.077,146.087 196.779 C 144.645 196.059,143.200 194.771,143.200 194.205 C 143.200 193.678,141.492 192.050,139.905 191.067 C 139.303 190.694,138.444 189.671,137.997 188.794 C 137.545 187.908,136.480 186.756,135.600 186.200 C 134.722 185.645,133.655 184.492,133.205 183.610 C 132.759 182.735,131.589 181.113,130.605 180.006 C 128.563 177.706,127.990 176.686,127.009 173.600 C 126.624 172.390,126.089 171.040,125.820 170.600 C 125.236 169.644,124.400 166.416,124.401 165.123 C 124.404 162.469,129.133 149.814,130.475 148.866 C 130.891 148.573,131.785 147.351,132.462 146.151 C 133.140 144.951,134.348 143.482,135.147 142.888 C 135.946 142.293,137.438 140.995,138.463 140.003 C 139.487 139.011,141.533 137.120,143.008 135.800 C 145.498 133.573,151.728 127.420,155.766 123.200 C 156.713 122.210,157.858 120.680,158.311 119.800 C 158.763 118.920,159.514 117.970,159.979 117.689 C 160.443 117.408,161.471 116.148,162.262 114.889 C 163.054 113.630,164.380 111.880,165.210 111.000 C 166.040 110.120,167.385 108.346,168.199 107.057 C 169.013 105.769,170.268 104.059,170.988 103.257 C 171.707 102.456,172.754 100.900,173.314 99.800 C 173.874 98.700,174.711 97.571,175.174 97.292 C 175.637 97.012,176.826 95.520,177.815 93.976 C 178.805 92.432,179.877 91.069,180.198 90.945 C 180.519 90.822,181.403 89.856,182.163 88.799 C 185.493 84.163,191.332 78.363,194.335 76.707 C 195.950 75.817,197.785 74.656,198.413 74.127 C 200.235 72.595,204.101 72.064,208.045 72.804 M218.185 142.404 C 222.893 142.851,229.657 143.200,233.611 143.200 C 242.143 143.200,244.729 143.606,247.400 145.364 C 248.500 146.087,250.210 147.143,251.200 147.709 C 254.220 149.435,260.951 156.374,262.454 159.311 C 262.879 160.142,264.121 161.809,265.214 163.015 C 266.306 164.221,267.200 165.414,267.200 165.665 C 267.200 165.915,268.100 167.991,269.200 170.277 C 270.300 172.563,271.200 174.662,271.200 174.941 C 271.200 175.604,269.336 180.354,268.842 180.949 C 268.632 181.202,268.068 182.456,267.590 183.735 C 266.983 185.357,266.359 186.280,265.525 186.787 C 264.868 187.186,263.737 188.396,263.010 189.474 C 262.284 190.553,261.075 191.857,260.324 192.371 C 259.572 192.886,258.559 193.916,258.071 194.660 C 257.583 195.404,256.319 196.634,255.262 197.393 C 254.205 198.153,253.133 199.230,252.879 199.786 C 252.625 200.343,251.469 201.409,250.309 202.155 C 249.149 202.901,247.876 204.069,247.481 204.750 C 247.086 205.431,245.977 206.528,245.017 207.188 C 244.057 207.849,242.896 208.997,242.436 209.741 C 241.977 210.485,240.882 211.569,240.003 212.151 C 239.124 212.732,237.952 213.925,237.399 214.801 C 236.846 215.677,235.708 216.827,234.870 217.356 C 234.032 217.885,233.014 218.825,232.608 219.445 C 232.202 220.064,229.984 222.468,227.680 224.786 C 225.375 227.104,223.026 229.630,222.459 230.400 C 221.892 231.170,220.747 232.561,219.914 233.491 C 218.330 235.260,218.057 236.583,218.655 239.577 C 219.015 241.375,219.976 241.849,225.203 242.806 C 231.611 243.978,235.100 245.081,237.200 246.597 C 238.190 247.312,239.592 248.198,240.315 248.566 C 242.163 249.508,246.401 253.786,248.074 256.400 C 248.849 257.610,249.891 258.960,250.390 259.400 C 250.888 259.840,251.794 261.225,252.403 262.477 C 253.011 263.730,254.148 265.535,254.929 266.487 C 255.710 267.440,256.892 269.368,257.555 270.771 C 258.219 272.175,259.292 273.880,259.939 274.561 C 260.586 275.243,261.605 276.790,262.203 278.000 C 262.800 279.210,264.150 281.199,265.202 282.419 C 266.254 283.640,267.579 285.324,268.148 286.161 C 268.716 286.998,269.997 288.519,270.994 289.541 C 275.619 294.280,276.831 295.693,277.637 297.287 C 278.114 298.229,279.175 299.733,279.995 300.629 C 283.807 304.794,281.920 310.832,276.298 312.460 C 274.800 312.894,262.266 312.829,258.968 312.370 C 254.979 311.815,245.984 307.118,244.929 305.040 C 244.583 304.358,243.727 303.080,243.027 302.200 C 241.300 300.030,240.196 298.110,239.592 296.222 C 239.314 295.355,238.330 293.825,237.405 292.822 C 236.480 291.820,235.148 289.909,234.446 288.575 C 233.743 287.242,232.399 285.262,231.458 284.175 C 230.517 283.089,229.167 281.348,228.459 280.306 C 227.750 279.264,226.823 278.227,226.400 278.000 C 225.977 277.773,225.104 276.826,224.460 275.894 C 223.817 274.962,222.325 273.173,221.145 271.917 C 217.583 268.127,215.068 265.212,214.006 263.642 C 208.751 255.875,205.938 253.493,202.450 253.858 L 200.018 254.112 192.909 261.756 C 183.336 272.050,181.385 274.119,178.753 276.771 C 177.517 278.016,176.224 279.581,175.878 280.248 C 175.533 280.916,174.619 281.895,173.846 282.425 C 173.073 282.954,171.949 284.167,171.346 285.119 C 170.744 286.072,169.745 287.212,169.127 287.652 C 168.508 288.093,167.432 289.296,166.735 290.327 C 166.038 291.357,164.704 293.029,163.771 294.043 C 162.105 295.853,160.803 298.022,160.195 300.000 C 160.026 300.550,159.013 301.960,157.944 303.132 C 156.875 304.305,156.000 305.506,156.000 305.802 C 156.000 306.097,155.505 306.717,154.900 307.179 C 154.295 307.642,152.650 308.912,151.244 310.002 C 148.022 312.501,147.499 312.602,137.800 312.592 C 129.046 312.583,127.485 312.296,123.931 310.042 C 122.949 309.420,121.477 308.689,120.659 308.419 C 117.886 307.504,117.390 302.343,119.905 300.581 C 120.364 300.260,121.384 298.639,122.172 296.978 C 122.960 295.318,124.525 292.853,125.650 291.501 C 126.775 290.150,128.009 288.313,128.392 287.420 C 128.776 286.522,129.575 285.534,130.177 285.212 C 130.776 284.892,131.728 283.813,132.293 282.815 C 132.858 281.817,134.148 280.170,135.160 279.156 C 136.172 278.141,137.540 276.573,138.200 275.670 C 142.327 270.026,154.512 257.355,161.555 251.384 C 163.621 249.633,166.341 247.210,167.600 246.000 C 168.859 244.790,170.410 243.336,171.045 242.768 C 172.306 241.641,174.524 239.444,176.766 237.101 C 177.555 236.277,182.548 231.147,187.863 225.701 C 200.025 213.239,200.265 212.992,204.566 208.404 C 206.528 206.312,210.416 202.170,213.207 199.200 C 218.062 194.034,221.139 190.569,223.848 187.217 C 228.348 181.651,226.119 174.175,219.072 171.202 C 217.581 170.573,215.627 169.395,214.730 168.584 C 213.832 167.773,212.330 166.770,211.391 166.355 C 210.452 165.939,209.260 165.144,208.742 164.588 C 208.224 164.032,206.330 162.679,204.534 161.582 C 198.562 157.935,194.481 151.960,194.943 147.539 C 195.573 141.515,199.554 140.635,218.185 142.404 M189.371 146.629 C 189.717 146.974,190.000 147.683,190.000 148.203 C 190.000 152.074,195.755 160.633,199.964 163.025 C 200.902 163.557,202.509 164.739,203.535 165.650 C 204.561 166.562,206.465 167.816,207.766 168.437 C 209.067 169.058,210.780 170.199,211.573 170.973 C 212.365 171.747,214.180 172.852,215.607 173.428 C 222.616 176.259,224.296 181.469,219.789 186.400 C 218.884 187.390,217.714 188.830,217.189 189.600 C 216.664 190.370,215.416 191.810,214.417 192.800 C 213.418 193.790,212.135 195.140,211.566 195.800 C 210.998 196.460,209.918 197.556,209.166 198.236 C 208.415 198.917,206.090 201.297,204.000 203.526 C 201.910 205.756,199.988 207.584,199.729 207.590 C 198.350 207.619,197.727 205.702,197.454 200.583 C 197.167 195.221,196.951 194.490,195.115 192.654 C 194.481 192.019,193.352 190.267,192.607 188.759 C 190.305 184.101,183.806 177.491,180.518 176.463 C 179.683 176.202,178.280 175.449,177.400 174.791 C 176.520 174.133,174.317 172.868,172.505 171.980 C 170.693 171.092,169.049 170.059,168.853 169.683 C 167.339 166.788,167.649 160.326,169.375 158.820 C 169.829 158.424,171.280 157.111,172.600 155.901 C 173.920 154.692,175.622 153.385,176.382 152.999 C 177.141 152.612,178.401 151.685,179.182 150.940 C 182.459 147.809,184.642 146.453,186.658 146.296 C 187.726 146.212,188.632 146.112,188.671 146.072 C 188.711 146.032,189.026 146.283,189.371 146.629 M190.692 215.476 C 190.895 216.085,189.549 216.509,189.036 215.996 C 188.730 215.690,188.778 215.458,189.203 215.190 C 189.895 214.753,190.489 214.867,190.692 215.476 " stroke="none" fill="#8c8c8c" fill-rule="evenodd"></path></g></svg>