<svg id="svg" xmlns="http://www.w3.org/2000/svg" xmlns:xlink="http://www.w3.org/1999/xlink" width="400" height="400" viewBox="0, 0, 400,400"><g id="svgg"><path id="path0" d="M186.719 0.519 C 118.975 11.149,77.072 62.490,76.195 135.938 L 76.013 151.172 73.219 157.055 C 69.623 164.623,67.458 172.962,65.921 185.156 C 64.597 195.665,65.094 194.481,54.599 212.159 C 35.892 243.668,32.730 289.293,47.645 312.500 C 50.212 316.493,65.645 302.258,70.730 291.206 L 73.755 284.631 78.548 294.478 C 86.376 310.562,95.937 324.634,106.662 335.860 C 113.522 343.040,113.381 342.628,109.206 343.296 C 88.935 346.537,70.313 360.541,70.313 372.543 C 70.313 405.054,168.684 410.415,194.185 379.293 C 197.814 374.865,202.788 374.185,204.749 377.849 C 216.072 399.007,282.922 407.479,314.213 391.721 C 341.432 378.014,331.187 353.258,294.531 344.162 C 291.738 343.469,288.948 342.727,288.330 342.513 C 287.558 342.246,289.177 340.118,293.504 335.710 C 304.632 324.377,314.129 310.472,322.099 293.844 L 326.734 284.173 328.060 288.088 C 331.061 296.954,338.871 306.472,347.080 311.267 C 351.895 314.080,352.354 313.819,355.419 306.524 C 368.299 275.874,363.053 240.798,339.837 202.338 C 336.048 196.061,335.269 194.125,334.809 189.838 C 333.190 174.750,330.036 162.429,325.873 154.926 C 323.687 150.987,323.633 150.620,324.017 142.426 C 327.361 71.137,283.385 11.440,219.945 1.150 C 213.501 0.105,191.965 -0.304,186.719 0.519 M173.346 63.359 C 196.214 74.786,194.885 124.090,171.525 130.881 C 146.070 138.281,131.393 88.906,152.686 67.506 C 159.703 60.455,165.290 59.333,173.346 63.359 M239.478 64.937 C 252.372 70.999,258.816 93.415,252.793 111.259 C 245.291 133.490,226.934 138.460,215.427 121.375 C 198.864 96.785,216.948 54.347,239.478 64.937 M169.561 80.255 C 163.246 83.489,160.810 96.126,164.909 104.393 C 171.406 117.498,183.594 111.777,183.594 95.622 C 183.594 83.801,176.916 76.489,169.561 80.255 M224.532 83.477 C 216.748 87.116,212.052 103.906,218.818 103.906 C 220.556 103.906,221.869 101.676,221.892 98.684 C 222.007 83.973,237.306 85.687,237.466 100.430 C 237.503 103.862,238.566 105.469,240.798 105.469 C 243.289 105.469,244.025 102.353,242.986 96.196 C 241.059 84.769,233.261 79.395,224.532 83.477 M177.819 89.648 C 180.011 92.536,178.589 100.000,175.847 100.000 C 173.304 100.000,171.583 94.399,173.048 90.893 C 174.252 88.010,176.191 87.504,177.819 89.648 M219.141 138.285 C 243.859 140.998,269.467 147.513,274.687 152.417 L 276.528 154.146 274.787 157.268 C 270.488 164.982,252.912 177.525,233.594 186.667 C 229.941 188.395,223.967 191.582,220.316 193.749 C 206.239 202.105,194.400 202.203,180.325 194.080 C 176.322 191.770,168.125 187.450,162.109 184.481 C 144.842 175.959,124.219 159.813,124.219 154.817 C 124.219 145.390,185.940 134.640,219.141 138.285 M254.845 160.480 C 245.248 167.099,237.196 171.215,226.854 174.790 L 218.359 177.726 200.000 177.730 L 181.641 177.734 174.219 175.160 C 163.831 171.558,153.774 166.533,146.488 161.306 C 134.923 153.008,136.325 155.283,148.828 165.102 C 155.460 170.310,159.534 172.948,168.359 177.751 C 171.367 179.387,176.289 182.376,179.297 184.392 C 195.068 194.962,204.621 195.061,220.456 184.815 C 225.318 181.669,232.236 177.515,235.827 175.584 C 243.007 171.724,251.950 165.361,258.594 159.384 C 264.290 154.260,263.547 154.477,254.845 160.480 M111.341 225.902 L 116.607 228.366 116.167 235.863 C 114.535 263.685,113.946 283.369,114.689 285.236 C 116.312 289.314,130.070 293.676,146.721 295.392 C 161.861 296.953,160.812 299.058,161.455 265.820 C 161.798 248.062,162.147 242.188,162.860 242.188 C 163.381 242.188,167.293 242.722,171.552 243.375 C 207.437 248.875,253.747 242.238,286.598 226.886 C 290.669 224.984,294.142 223.569,294.315 223.742 C 294.974 224.401,296.911 232.792,298.573 242.188 C 311.084 312.897,266.131 366.821,196.489 364.646 C 129.466 362.552,88.725 308.719,101.930 239.703 C 103.177 233.183,105.536 223.438,105.867 223.438 C 105.981 223.438,108.444 224.546,111.341 225.902 " stroke="none" fill="#000000" fill-rule="evenodd"></path></g></svg>